<svg version="1.1" id="Layer_1" xmlns="http://www.w3.org/2000/svg" xmlns:xlink="http://www.w3.org/1999/xlink" x="0px" y="0px" style="enable-background:new 0 0 560 288;" xml:space="preserve" viewBox="12 12.05 233.57 42.05"><style type="text/css">	.st0{fill:#75E1E8;stroke:#000000;stroke-width:0.5;stroke-miterlimit:10;}	.st1{fill:#9CE3A0;stroke:#000000;stroke-width:0.5;stroke-miterlimit:10;}	.st2{fill:#F6B18B;stroke:#000000;stroke-width:0.5;stroke-miterlimit:10;}	.st3{fill:#EA81A2;stroke:#000000;stroke-width:0.5;stroke-miterlimit:10;}	.st4{fill:#E7E7E7;stroke:#000000;stroke-width:0.5;stroke-miterlimit:10;}</style><g>	<g>		<path class="st0" d="M33.9,16.6c0.1,0.2,0,0.6-0.2,1.2c-0.3,0.6-0.6,1.4-0.9,2.5c-0.3,1.1-0.6,1.9-0.7,2.3c-0.5,2-0.8,3.6-0.9,5    c-0.1,0.5-0.2,0.8-0.6,0.9c-0.3,0.1-0.8-0.1-1.4-0.6c-1-0.7-1.7-1.8-2-3.1c-0.3-1.3-0.3-2.5,0.1-3.7c-1.7,1-3.1,2.3-4.4,4    c-1.3,1.7-2.2,3.6-2.9,5.6c-0.3,0.8-0.6,1.6-0.7,2.4c-0.1,0.8-0.1,1.5,0.1,2c0.1,0.6,0.4,1,0.7,1.4c0.3,0.4,0.8,0.5,1.2,0.6    c0.5,0,1-0.1,1.7-0.5c0.6-0.4,1.3-1,2-1.7c0.4-0.4,0.4-0.6-0.1-0.5c-0.2,0-0.6,0.1-1.2,0.2c-0.6,0.2-1,0.2-1.1,0.2    c-0.7,0.2-1.1,0.3-1.2,0.3c-0.2,0-0.4,0-0.5-0.1c-0.1-0.1-0.2-0.4-0.2-0.8c-0.1-0.9,0.1-2,0.4-3.1c0-0.9,0.8-1.4,2.3-1.5    c1-0.3,2-0.4,2.9-0.4c0.9,0,1.8,0.3,2.6,0.8c0.8,0.5,1.3,1.2,1.7,2.1c0.2,0.6,0.3,1.1,0.3,1.4c0,0.3-0.1,0.7-0.4,1.1    c-0.6,1.1-1.2,2-2,2.9c-0.8,0.9-1.6,1.6-2.5,2.1c-0.9,0.6-1.8,1-2.8,1.2c-1,0.3-1.9,0.4-2.8,0.3c-0.9,0-1.7-0.3-2.5-0.7    c-0.8-0.4-1.4-1-1.9-1.8c-0.5-0.7-0.9-1.7-1.1-3c-0.2-1.2-0.2-2.6,0-4.2c0.4-2.2,1.1-4.4,2.2-6.6s2.5-4.2,4.1-5.9    c1.6-1.7,3.5-2.9,5.5-3.5c2-0.6,4.2-0.3,6.4,0.7c0.2,0.1,0.4,0.2,0.4,0.2C33.8,16.5,33.9,16.6,33.9,16.6z"></path>		<path class="st0" d="M48,16c1.5,1.1,2.3,2.9,2.5,5.2c0.2,2.3-0.1,4.7-0.9,7.2c-0.8,2.4-1.8,4.8-3.1,7c-1.3,2.2-2.7,3.9-4.1,4.9    c-1.6,1-3,1.3-4.3,1.1c-1.3-0.2-2.4-0.9-3.2-1.8c-0.9-1-1.5-2.2-1.9-3.7s-0.4-3-0.2-4.5c0.7-5,2.5-9.3,5.4-12.8    c1.3-1.8,2.9-2.9,4.6-3.5C44.7,14.5,46.4,14.8,48,16z M38.9,36.4c0.2,0,0.4,0,0.6,0c0.2,0,0.5-0.1,0.8-0.3    c0.4-0.2,0.7-0.6,1.1-1.1c0.4-0.5,1-1.5,1.6-2.9c0.6-1.4,1.2-2.9,1.8-4.5c0.5-1.6,0.8-3.1,0.9-4.3c0-1.3-0.4-2.1-1.2-2.3    c-0.7,0.2-1.4,0.7-2.3,1.7c-0.9,1-1.6,2.1-2.3,3.5c-0.7,1.3-1.3,2.7-1.7,4.1c-0.5,1.4-0.6,2.7-0.5,3.8S38.1,35.9,38.9,36.4z"></path>		<path class="st0" d="M65.9,16c1.5,1.1,2.3,2.9,2.5,5.2c0.2,2.3-0.1,4.7-0.9,7.2c-0.8,2.4-1.8,4.8-3.1,7c-1.3,2.2-2.7,3.9-4.1,4.9    c-1.6,1-3,1.3-4.3,1.1c-1.3-0.2-2.4-0.9-3.2-1.8c-0.9-1-1.5-2.2-1.9-3.7s-0.4-3-0.2-4.5c0.7-5,2.5-9.3,5.4-12.8    c1.3-1.8,2.9-2.9,4.6-3.5C62.5,14.5,64.2,14.8,65.9,16z M56.7,36.4c0.2,0,0.4,0,0.6,0c0.2,0,0.5-0.1,0.8-0.3    c0.4-0.2,0.7-0.6,1.1-1.1c0.4-0.5,1-1.5,1.6-2.9c0.6-1.4,1.2-2.9,1.8-4.5c0.5-1.6,0.8-3.1,0.9-4.3c0-1.3-0.4-2.1-1.2-2.3    c-0.7,0.2-1.4,0.7-2.3,1.7c-0.9,1-1.6,2.1-2.3,3.5c-0.7,1.3-1.3,2.7-1.7,4.1c-0.5,1.4-0.6,2.7-0.5,3.8    C55.5,35.1,55.9,35.9,56.7,36.4z"></path>		<path class="st0" d="M130.5,17.2c1.5,1.1,2.3,2.9,2.5,5.2c0.2,2.3-0.1,4.7-0.9,7.2c-0.8,2.4-1.8,4.8-3.1,7    c-1.3,2.2-2.7,3.9-4.1,4.9c-1.6,1-3,1.3-4.3,1.1c-1.3-0.2-2.4-0.9-3.2-1.8c-0.9-1-1.5-2.2-1.9-3.7s-0.4-3-0.2-4.5    c0.7-5,2.5-9.3,5.4-12.8c1.3-1.8,2.9-2.9,4.6-3.5C127.1,15.7,128.8,16,130.5,17.2z M121.3,37.5c0.2,0,0.4,0,0.6,0    c0.2,0,0.5-0.1,0.8-0.3c0.4-0.2,0.7-0.6,1.1-1.1c0.4-0.5,1-1.5,1.6-2.9c0.6-1.4,1.2-2.9,1.8-4.5c0.5-1.6,0.8-3.1,0.9-4.3    c0-1.3-0.4-2.1-1.2-2.3c-0.7,0.2-1.4,0.7-2.3,1.7c-0.9,1-1.6,2.1-2.3,3.5c-0.7,1.3-1.3,2.7-1.7,4.1c-0.5,1.4-0.6,2.7-0.5,3.8    S120.6,37.1,121.3,37.5z M163.9,37.8C163.9,37.8,163.9,37.8,163.9,37.8C163.9,37.8,163.9,37.8,163.9,37.8z M163.9,37.7    C163.9,37.7,163.9,37.7,163.9,37.7C163.9,37.7,163.9,37.7,163.9,37.7L163.9,37.7z"></path>		<path class="st0" d="M84.3,17.1c0.4,0.2,0.6,0.4,0.8,0.6c0.1,0.2,0.1,0.5,0,0.8c-0.2,0.3-0.4,0.8-0.7,1.4    c-0.3,0.7-0.6,1.2-0.8,1.6c-0.2,0.4-0.4,0.9-0.7,1.4c-0.3,0.6-0.5,1.1-0.7,1.6c-0.1,0.2-0.2,0.7-0.3,1.3c-0.1,0.7-0.3,1.2-0.5,1.6    c-0.2,0.4-0.5,0.6-0.8,0.6c-1.1-0.4-1.9-1.2-2.3-2.5c-0.5-1.2-0.6-2.4-0.2-3.6c-1.5,0.8-2.3,1.7-2.6,2.8c0.2,0.6,0.4,1.2,0.8,1.8    c0.3,0.7,0.7,1.3,1.1,1.8c0.4,0.6,0.7,1.2,1.1,1.8c0.4,0.6,0.7,1.2,1,1.9c0.3,0.6,0.5,1.3,0.7,1.9c0.2,0.6,0.3,1.3,0.2,2    c0,0.7-0.2,1.4-0.5,2.2c-0.5,1.1-1.2,2-2.2,2.6c-1,0.6-2,0.9-3.2,0.9c-1.2,0-2.2-0.4-3.2-1c-0.3-0.3-0.7-0.6-1.2-1.1    c-0.5-0.5-0.9-1-1.4-1.6c-0.5-0.6-0.8-1.2-1.1-1.8s-0.3-1.2-0.2-1.7c0.1-0.5,0.5-0.9,1.1-1.2c0.4-0.2,0.8-0.4,1.2-0.4    c0.4,0,0.8,0.1,1.2,0.3c0.3,0.2,0.7,0.6,1.1,1.2c0.4,0.5,0.9,1,1.3,1.4c0.4,0.4,0.9,0.7,1.3,0.8c0.4-0.3,0.5-0.7,0.3-1.3    c-0.2-0.6-0.5-1.2-1-2c-0.5-0.7-1.1-1.6-1.7-2.5c-0.6-0.9-1.1-1.9-1.6-2.9c-0.5-1-0.7-2-0.8-3.1c0-1.1,0.2-2.1,0.8-3.1    c0.6-1.3,1.5-2.4,2.5-3.4c1.1-1,2.2-1.7,3.5-2.2c1.2-0.5,2.6-0.6,3.9-0.5C81.9,15.8,83.2,16.3,84.3,17.1z"></path>		<path class="st0" d="M102.8,18.4c0.2,0.2,0.4,0.5,0.5,0.7c0.1,0.3,0.2,0.5,0.3,0.8c0,0.3,0,0.5-0.2,0.7c-0.2,0.2-0.5,0.3-0.9,0.2    c-3.5,0-6.5,0.2-9,0.6c0,0.2-0.2,0.8-0.4,1.8c-0.2,1-0.4,1.8-0.6,2.3c1.5-0.3,2.9-0.2,4.3,0.4c1.4,0.5,2.3,1.4,2.8,2.7    c0.1,0.3,0.1,0.6,0,0.8c-0.1,0.2-0.3,0.3-0.6,0.3c-2.8,0-5.4,0.2-7.9,0.8c-0.2,0.8-0.4,1.6-0.7,2.4c-0.5,1.4-0.7,2.2-0.8,2.5    c-0.1,0.5-0.1,0.7-0.1,0.8c0.1,0.1,0.3,0,0.8,0c3.1-0.3,5.8-0.8,8.2-1.5c0.2-0.1,0.4-0.1,0.5-0.1c0.1,0,0.2,0.1,0.4,0.3    c0.6,0.7,0.4,1.7-0.5,2.9c-0.4,0.6-0.9,1.1-1.6,1.5c-0.6,0.4-1.4,0.7-2.3,1c-0.9,0.2-1.6,0.4-2.2,0.5c-0.6,0.1-1.4,0.2-2.4,0.3    c-0.1,0-0.3,0-0.8,0.1c-0.5,0.1-0.8,0.1-1,0.1c-0.2,0-0.4,0-0.9,0c-0.4,0-0.7,0-1,0c-0.2,0-0.5-0.1-0.8-0.2    c-0.3-0.1-0.6-0.2-0.8-0.4c-1.4-1-1.9-2.2-1.5-3.5c3.1-11.3,4.9-17.7,5.2-19.1c0.2-0.9,0.4-1.4,0.6-1.5c0.2-0.2,0.8-0.3,1.7-0.3    c0.4,0,1.1-0.1,2-0.1c1-0.1,1.7-0.1,2.2-0.2c0.5,0,1.2,0,2,0c0.8,0,1.5,0.1,2,0.3c0.5,0.2,1.1,0.4,1.7,0.8    C101.8,17.4,102.4,17.8,102.8,18.4z"></path>		<path class="st0" d="M188.2,19.6c0.2,0.2,0.4,0.5,0.5,0.7c0.1,0.3,0.2,0.5,0.3,0.8c0,0.3,0,0.5-0.2,0.7c-0.2,0.2-0.5,0.3-0.9,0.2    c-3.5,0-6.5,0.2-9,0.6c0,0.2-0.2,0.8-0.4,1.8s-0.4,1.8-0.6,2.3c1.5-0.3,2.9-0.2,4.3,0.4c1.4,0.5,2.3,1.4,2.8,2.7    c0.1,0.3,0.1,0.6,0,0.8c-0.1,0.2-0.3,0.3-0.6,0.3c-2.8,0-5.4,0.2-7.9,0.8c-0.2,0.8-0.4,1.6-0.7,2.4c-0.5,1.4-0.7,2.2-0.8,2.5    c-0.1,0.5-0.1,0.7-0.1,0.8c0.1,0.1,0.3,0,0.8,0c3.1-0.3,5.8-0.8,8.2-1.5c0.2-0.1,0.4-0.1,0.5-0.1c0.1,0,0.2,0.1,0.4,0.3    c0.6,0.7,0.4,1.7-0.5,2.9c-0.4,0.6-0.9,1.1-1.6,1.5c-0.6,0.4-1.4,0.7-2.3,1c-0.9,0.2-1.6,0.4-2.2,0.5s-1.4,0.2-2.4,0.3    c-0.1,0-0.3,0-0.8,0.1c-0.5,0.1-0.8,0.1-1,0.1c-0.2,0-0.4,0-0.9,0c-0.4,0-0.7,0-1,0c-0.2,0-0.5-0.1-0.8-0.2    c-0.3-0.1-0.6-0.2-0.8-0.4c-1.4-1-1.9-2.2-1.5-3.5c3.1-11.3,4.9-17.7,5.2-19.1c0.2-0.9,0.4-1.4,0.6-1.5c0.2-0.2,0.8-0.3,1.7-0.3    c0.4,0,1.1-0.1,2-0.1c1-0.1,1.7-0.1,2.2-0.2c0.5,0,1.2,0,2,0c0.8,0,1.5,0.1,2,0.3c0.5,0.2,1.1,0.4,1.7,0.8    C187.2,18.6,187.7,19,188.2,19.6z"></path>		<path class="st0" d="M220.6,20c0.2,0.2,0.4,0.5,0.5,0.7c0.1,0.3,0.2,0.5,0.3,0.8c0,0.3,0,0.5-0.2,0.7c-0.2,0.2-0.5,0.3-0.9,0.2    c-3.5,0-6.5,0.2-9,0.6c0,0.2-0.2,0.8-0.4,1.8c-0.2,1-0.4,1.8-0.6,2.3c1.5-0.3,2.9-0.2,4.3,0.4c1.4,0.5,2.3,1.4,2.8,2.7    c0.1,0.3,0.1,0.6,0,0.8c-0.1,0.2-0.3,0.3-0.6,0.3c-2.8,0-5.4,0.2-7.9,0.8c-0.2,0.8-0.4,1.6-0.7,2.4c-0.5,1.4-0.7,2.2-0.8,2.5    c-0.1,0.5-0.1,0.7-0.1,0.8c0.1,0.1,0.3,0,0.8,0c3.1-0.3,5.8-0.8,8.2-1.5c0.2-0.1,0.4-0.1,0.5-0.1c0.1,0,0.2,0.1,0.4,0.3    c0.6,0.7,0.4,1.7-0.5,2.9c-0.4,0.6-0.9,1.1-1.6,1.5c-0.6,0.4-1.4,0.7-2.3,1c-0.9,0.2-1.6,0.4-2.2,0.5s-1.4,0.2-2.4,0.3    c-0.1,0-0.3,0-0.8,0.1c-0.5,0.1-0.8,0.1-1,0.1c-0.2,0-0.4,0-0.9,0c-0.4,0-0.7,0-1,0c-0.2,0-0.5-0.1-0.8-0.2    c-0.3-0.1-0.6-0.2-0.8-0.4c-1.4-1-1.9-2.2-1.5-3.5c3.1-11.3,4.9-17.7,5.2-19.1c0.2-0.9,0.4-1.4,0.6-1.5c0.2-0.2,0.8-0.3,1.7-0.3    c0.4,0,1.1-0.1,2-0.1c1-0.1,1.7-0.1,2.2-0.2c0.5,0,1.2,0,2,0c0.8,0,1.5,0.1,2,0.3c0.5,0.2,1.1,0.4,1.7,0.8    C219.6,19.1,220.1,19.5,220.6,20z"></path>		<path class="st0" d="M115.5,27c0.3,0.4,0.3,1.1,0,2.1c-0.3,1-0.7,1.7-1,2.2c-0.1,0.2-0.2,0.3-0.4,0.3c-0.2,0.1-0.5,0.1-0.7,0.1    s-0.6,0-0.8,0c-0.2,0-0.6,0-0.9,0c-0.4,0-0.6,0-0.8,0c-0.9,0-2.2,0-3.8-0.1c-1.6-0.1-2.7-0.1-3.1-0.2c-0.1,0-0.3-0.1-0.5-0.1    c-0.2,0-0.4-0.1-0.5-0.1c-0.2,0-0.5,0-1-0.1c-0.5,0-0.9-0.1-1.1-0.2c0-0.1-0.1-0.1-0.2-0.2s-0.1-0.1-0.2-0.2    c0-0.8,0.1-1.5,0.3-2.2c0.2-0.7,0.5-1.2,0.9-1.6c0.2,0,0.5-0.1,0.7-0.1c0.3,0,0.5,0,0.9,0s0.5,0,0.7,0c1.2,0,2.4,0.1,3.7,0.1    s2.7,0.1,4.3,0.1C113.4,27,114.6,27,115.5,27z"></path>		<path class="st0" d="M148.2,27.6c0.3,0.4,0.3,1.1,0,2.1c-0.3,1-0.7,1.7-1,2.2c-0.1,0.2-0.2,0.3-0.4,0.3s-0.5,0.1-0.7,0.1    c-0.3,0-0.6,0-0.8,0c-0.2,0-0.6,0-0.9,0c-0.4,0-0.6,0-0.8,0c-0.9,0-2.2,0-3.8-0.1c-1.6-0.1-2.7-0.1-3.1-0.2    c-0.1,0-0.3-0.1-0.5-0.1c-0.2,0-0.4-0.1-0.5-0.1c-0.2,0-0.5,0-1-0.1c-0.5,0-0.9-0.1-1.1-0.2c0-0.1-0.1-0.1-0.2-0.2    s-0.1-0.1-0.2-0.2c0-0.8,0.1-1.5,0.3-2.2c0.2-0.7,0.5-1.2,0.9-1.6c0.2,0,0.5-0.1,0.7-0.1c0.3,0,0.5,0,0.9,0s0.5,0,0.7,0    c1.2,0,2.4,0.1,3.7,0.1c1.3,0,2.7,0.1,4.3,0.1C146.1,27.6,147.3,27.6,148.2,27.6z"></path>		<path class="st0" d="M168.8,16.6c0.6,0.3,1.2,0.6,1.7,1.1c0.5,0.5,0.9,0.9,1.1,1.4c-1.2,4.4-2,7.5-2.4,9.3    c-0.3,1.4-0.7,2.8-1.1,4.2c-0.4,1.5-0.9,3.1-1.5,5c-0.6,1.9-1,3.3-1.2,4.2c-0.2,0.9-0.4,1.4-0.6,1.5c-0.2,0.1-0.7-0.2-1.3-0.9    c-0.6-0.4-1-0.8-1.3-1.1c-0.3-0.3-0.5-0.5-0.7-0.7c-0.2-0.2-0.2-0.4-0.2-0.7s0.1-0.5,0.1-0.7c0-0.2,0.1-0.6,0.3-1.1s0.2-1,0.3-1.5    c0.4-1.3,0.5-1.9,0.4-1.9c-0.1,0-0.6,0.7-1.5,2.2c-0.6,1.1-1.1,1.7-1.3,2c-0.5,1-1,1.7-1.6,2.1c-0.6,0.4-1.1,0.4-1.7,0.2    c-0.6-0.2-1.3-0.8-2-1.6c-0.1-0.4-0.2-1.2-0.2-2.3c-0.1-1.1-0.2-1.8-0.3-2.2c-0.7,2.7-1.3,4.8-1.7,6.4c-0.1,0.4-0.3,0.7-0.6,0.7    c-0.3,0.1-0.5,0-0.8-0.2c-0.5-0.2-1.1-0.6-1.6-1c-0.6-0.4-1-0.9-1.3-1.3c-0.3-0.5-0.4-0.8-0.4-1c0-0.2,0.1-0.6,0.2-1    c0.5-2,0.8-3.4,1-4.1c0.3-1.1,0.7-2.6,1.2-4.5c0.5-1.9,1-3.7,1.5-5.3c0.5-1.6,1-3.1,1.6-4.4c0.4-1.1,1-1.8,1.8-2.3    c0.8-0.5,1.7-0.6,2.7-0.3c0.4,0.1,0.7,0.4,0.9,0.7s0.3,0.8,0.3,1.3c0,0.5,0,1-0.1,1.5c0,0.5-0.1,1.1-0.2,1.6c-0.1,0.6-0.1,1,0,1.3    c0,0.1-0.1,1.6-0.3,4.4c-0.2,2.3-0.1,3.4,0.1,3.4c0.1,0,0.3-0.2,0.4-0.6c0.3-0.5,0.9-1.3,1.6-2.5c0.8-1.2,1.4-2.1,1.8-2.7    c0.4-0.6,0.9-1.4,1.5-2.4c0.6-1,1.1-1.9,1.6-2.7c0.5-0.8,0.9-1.7,1.3-2.5c0.2-0.5,0.5-0.9,0.8-1.1c0.3-0.2,0.6-0.3,0.8-0.3    C168.1,16.3,168.4,16.4,168.8,16.6z"></path>		<path class="st0" d="M201.1,17.2c1.1,0,1.9,0,2.6,0.1c0.7,0.1,1.3,0.2,1.7,0.4c0.5,0.2,0.7,0.5,0.8,0.8c0,0.4-0.1,0.8-0.5,1.4    c-0.4,0.6-1,1.3-1.8,2.2c-0.3,0-0.7,0-1.1,0c-0.4,0-0.7,0-0.9,0s-0.4,0-0.7,0c-0.2,0-0.5,0-0.6,0.1c-0.2,0-0.3,0.1-0.4,0.2    c-0.2,0.2-0.4,0.4-0.6,0.7c-0.1,0.3-0.3,0.9-0.4,1.7c-0.1,0.3-0.3,1.3-0.7,2.9c-0.4,1.7-0.8,3.4-1.3,5.2c-0.5,1.8-1,3.6-1.6,5.4    c-0.6,1.8-1.1,3.2-1.7,4.2s-1.1,1.3-1.6,0.9c-0.2-0.1-0.5-0.2-0.7-0.4c-0.3-0.2-0.5-0.3-0.6-0.4c-0.1-0.1-0.3-0.3-0.6-0.6    c-0.3-0.3-0.5-0.5-0.5-0.5c-0.1-0.2-0.2-0.4-0.3-0.8c0-0.3,0-0.6,0-0.8c0.4-1.6,1.1-4.1,2-7.3c0.2-0.6,0.5-1.7,0.8-3.1    c0.3-1.4,0.6-2.5,0.9-3.3c0.6-2.4,1-3.6,1-3.8c-0.1,0-0.2,0.1-0.4,0.1c-0.2,0-0.4,0.1-0.4,0.1c-0.1,0-0.2,0-0.5,0    c-0.6,0.2-1.6,0.4-3,0.6c-0.2-0.6-0.3-1.5-0.2-2.7c0.1-1.1,0.3-1.9,0.6-2.4c1-0.2,2.2-0.4,3.6-0.6c1.3-0.1,2.4-0.2,3.4-0.3    C198.4,17.2,199.6,17.2,201.1,17.2z"></path>		<path class="st0" d="M230,38.8c0.3,0.3,0.8,0.8,1.4,1.5c0.6,0.7,0.9,1.1,1.1,1.3c0.2,0.2,0.3,0.3,0.4,0.4c0.1,0.1,0.1,0.2,0.1,0.4    c0,0.2-0.1,0.4-0.2,0.6c-1,0.6-2.1,0.8-3.2,0.6c-1.1-0.2-2.1-0.7-3.1-1.4c-0.9-0.7-1.7-1.5-2.3-2.5c-0.1-0.1-0.3-0.3-0.5-0.6    c-0.2-0.3-0.4-0.5-0.5-0.6c-0.2,0.4-0.4,1.2-0.7,2.3c-0.3,1.1-0.5,1.9-0.8,2.4c-0.2,0.6-0.6,0.7-1.1,0.3c-0.9-0.6-1.7-1.3-2.4-2.1    c-0.2-0.2-0.3-0.4-0.3-0.6c0-0.2,0-0.4,0.1-0.7c1.7-7,3.6-14.3,5.7-21.8c0-0.3,0.1-0.5,0.1-0.7c0.1-0.2,0.2-0.3,0.3-0.4    c0.2-0.1,0.3-0.1,0.5-0.2c0.2,0,0.3,0,0.6,0c0.2,0,0.4,0.1,0.6,0.1c0.2,0,0.4,0.1,0.6,0.2c0.2,0.1,0.4,0.1,0.5,0.2    c0.1,0,0.3-0.1,0.7-0.2s0.7-0.2,0.8-0.2c1.3-0.1,2.5-0.1,3.5,0.2c1,0.3,1.8,0.7,2.4,1.3c0.6,0.6,1,1.2,1.4,2    c0.3,0.8,0.5,1.6,0.5,2.5c0,0.9-0.1,1.8-0.4,2.8c-0.2,1-0.6,1.9-1.1,2.7c-0.5,0.9-1,1.7-1.7,2.4c-0.7,0.7-1.4,1.4-2.2,1.8    c-0.4,0.3-0.8,0.5-1.2,0.8c-0.4,0.2-0.7,0.4-0.9,0.5c-0.2,0.1-0.4,0.2-0.6,0.4c-0.2,0.1-0.3,0.2-0.4,0.3c0,0-0.1,0.1-0.1,0.3    c0,0.1,0,0.2,0.1,0.3c0.1,0.1,0.2,0.2,0.3,0.5c0.1,0.2,0.3,0.4,0.5,0.6c0.2,0.2,0.4,0.5,0.7,0.9C229.4,38,229.7,38.4,230,38.8z     M230.3,22.7c-0.2,0-0.4,0-0.6,0c-1,0-1.6,0.1-1.7,0.2c-0.2,0.1-0.4,0.5-0.5,1.1c-0.2,0.6-0.3,1.2-0.5,1.6c-0.1,0.4-0.3,1.1-0.5,2    c-0.2,0.9-0.3,1.5-0.4,1.9c0.6-0.3,1.1-0.7,1.5-0.9c0.4-0.3,0.9-0.6,1.4-1.1c0.5-0.5,1-0.9,1.3-1.3c0.3-0.4,0.6-0.9,0.8-1.5    c0.2-0.6,0.3-1.2,0.3-1.7C231.2,22.8,230.9,22.7,230.3,22.7z"></path>	</g></g><g>	<g>		<path class="st1" d="M35.5,18.6c0.1,0.2,0,0.6-0.2,1.2c-0.3,0.6-0.6,1.4-0.9,2.5c-0.3,1.1-0.6,1.9-0.7,2.3c-0.5,2-0.8,3.6-0.9,5    c-0.1,0.5-0.2,0.8-0.6,0.9c-0.3,0.1-0.8-0.1-1.4-0.6c-1-0.7-1.7-1.8-2-3.1c-0.3-1.3-0.3-2.5,0.1-3.7c-1.7,1-3.1,2.3-4.4,4    c-1.3,1.7-2.2,3.6-2.9,5.6c-0.3,0.8-0.6,1.6-0.7,2.4c-0.1,0.8-0.1,1.5,0.1,2c0.1,0.6,0.4,1,0.7,1.4c0.3,0.4,0.8,0.5,1.2,0.6    c0.5,0,1-0.1,1.7-0.5c0.6-0.4,1.3-1,2-1.7c0.4-0.4,0.4-0.6-0.1-0.5c-0.2,0-0.6,0.1-1.2,0.2c-0.6,0.2-1,0.2-1.1,0.2    c-0.7,0.2-1.1,0.3-1.2,0.3c-0.2,0-0.4,0-0.5-0.1c-0.1-0.1-0.2-0.4-0.2-0.8c-0.1-0.9,0.1-2,0.4-3.1c0-0.9,0.8-1.4,2.3-1.5    c1-0.3,2-0.4,2.9-0.4c0.9,0,1.8,0.3,2.6,0.8c0.8,0.5,1.3,1.2,1.7,2.1c0.2,0.6,0.3,1.1,0.3,1.4c0,0.3-0.1,0.7-0.4,1.1    c-0.6,1.1-1.2,2-2,2.9c-0.8,0.9-1.6,1.6-2.5,2.1c-0.9,0.6-1.8,1-2.8,1.2c-1,0.3-1.9,0.4-2.8,0.3c-0.9,0-1.7-0.3-2.5-0.7    c-0.8-0.4-1.4-1-1.9-1.8c-0.5-0.7-0.9-1.7-1.1-3c-0.2-1.2-0.2-2.6,0-4.2c0.4-2.2,1.1-4.4,2.2-6.6c1.1-2.2,2.5-4.2,4.1-5.9    c1.6-1.7,3.5-2.9,5.5-3.5c2-0.6,4.2-0.3,6.4,0.7c0.2,0.1,0.4,0.2,0.4,0.2C35.4,18.4,35.4,18.5,35.5,18.6z"></path>		<path class="st1" d="M49.6,17.9c1.5,1.1,2.3,2.9,2.5,5.2c0.2,2.3-0.1,4.7-0.9,7.2c-0.8,2.4-1.8,4.8-3.1,7    c-1.3,2.2-2.7,3.9-4.1,4.9c-1.6,1-3,1.3-4.3,1.1c-1.3-0.2-2.4-0.9-3.2-1.8c-0.9-1-1.5-2.2-1.9-3.7c-0.4-1.5-0.4-3-0.2-4.5    c0.7-5,2.5-9.3,5.4-12.8c1.3-1.8,2.9-2.9,4.6-3.5C46.2,16.4,47.9,16.7,49.6,17.9z M40.4,38.3c0.2,0,0.4,0,0.6,0    c0.2,0,0.5-0.1,0.8-0.3c0.4-0.2,0.7-0.6,1.1-1.1c0.4-0.5,1-1.5,1.6-2.9c0.6-1.4,1.2-2.9,1.8-4.5c0.5-1.6,0.8-3.1,0.9-4.3    c0-1.3-0.4-2.1-1.2-2.3c-0.7,0.2-1.4,0.7-2.3,1.7c-0.9,1-1.6,2.1-2.3,3.5c-0.7,1.3-1.3,2.7-1.7,4.1c-0.5,1.4-0.6,2.7-0.5,3.8    C39.2,37.1,39.7,37.9,40.4,38.3z"></path>		<path class="st1" d="M67.4,17.9c1.5,1.1,2.3,2.9,2.5,5.2c0.2,2.3-0.1,4.7-0.9,7.2c-0.8,2.4-1.8,4.8-3.1,7    c-1.3,2.2-2.7,3.9-4.1,4.9c-1.6,1-3,1.3-4.3,1.1c-1.3-0.2-2.4-0.9-3.2-1.8c-0.9-1-1.5-2.2-1.9-3.7s-0.4-3-0.2-4.5    c0.7-5,2.5-9.3,5.4-12.8c1.3-1.8,2.9-2.9,4.6-3.5C64.1,16.4,65.8,16.7,67.4,17.9z M58.3,38.3c0.2,0,0.4,0,0.6,0    c0.2,0,0.5-0.1,0.8-0.3c0.4-0.2,0.7-0.6,1.1-1.1c0.4-0.5,1-1.5,1.6-2.9c0.6-1.4,1.2-2.9,1.8-4.5c0.5-1.6,0.8-3.1,0.9-4.3    c0-1.3-0.4-2.1-1.2-2.3c-0.7,0.2-1.4,0.7-2.3,1.7c-0.9,1-1.6,2.1-2.3,3.5c-0.7,1.3-1.3,2.7-1.7,4.1c-0.5,1.4-0.6,2.7-0.5,3.8    S57.5,37.9,58.3,38.3z"></path>		<path class="st1" d="M132.1,19.1c1.5,1.1,2.3,2.9,2.5,5.2c0.2,2.3-0.1,4.7-0.9,7.2c-0.8,2.4-1.8,4.8-3.1,7    c-1.3,2.2-2.7,3.9-4.1,4.9c-1.6,1-3,1.3-4.3,1.1c-1.3-0.2-2.4-0.9-3.2-1.8c-0.9-1-1.5-2.2-1.9-3.7c-0.4-1.5-0.4-3-0.2-4.5    c0.7-5,2.5-9.3,5.4-12.8c1.3-1.8,2.9-2.9,4.6-3.5C128.7,17.6,130.4,17.9,132.1,19.1z M122.9,39.5c0.2,0,0.4,0,0.6,0    c0.2,0,0.5-0.1,0.8-0.3c0.4-0.2,0.7-0.6,1.1-1.1c0.4-0.5,1-1.5,1.6-2.9c0.6-1.4,1.2-2.9,1.8-4.5c0.5-1.6,0.8-3.1,0.9-4.3    c0-1.3-0.4-2.1-1.2-2.3c-0.7,0.2-1.4,0.7-2.3,1.7c-0.9,1-1.6,2.1-2.3,3.5c-0.7,1.3-1.3,2.7-1.7,4.1c-0.5,1.4-0.6,2.7-0.5,3.8    C121.7,38.2,122.1,39,122.9,39.5z M165.4,39.7C165.4,39.7,165.5,39.8,165.4,39.7C165.5,39.8,165.5,39.7,165.4,39.7z M165.5,39.6    C165.5,39.6,165.5,39.6,165.5,39.6C165.5,39.7,165.5,39.7,165.5,39.6L165.5,39.6z"></path>		<path class="st1" d="M85.9,19c0.4,0.2,0.6,0.4,0.8,0.6c0.1,0.2,0.1,0.5,0,0.8c-0.2,0.3-0.4,0.8-0.7,1.4c-0.3,0.7-0.6,1.2-0.8,1.6    c-0.2,0.4-0.4,0.9-0.7,1.4c-0.3,0.6-0.5,1.1-0.7,1.6c-0.1,0.2-0.2,0.7-0.3,1.3c-0.1,0.7-0.3,1.2-0.5,1.6c-0.2,0.4-0.5,0.6-0.8,0.6    c-1.1-0.4-1.9-1.2-2.3-2.5c-0.5-1.2-0.6-2.4-0.2-3.6c-1.5,0.8-2.3,1.7-2.6,2.8c0.2,0.6,0.4,1.2,0.8,1.8c0.3,0.7,0.7,1.3,1.1,1.8    c0.4,0.6,0.7,1.2,1.1,1.8c0.4,0.6,0.7,1.2,1,1.9c0.3,0.6,0.5,1.3,0.7,1.9c0.2,0.6,0.3,1.3,0.2,2c0,0.7-0.2,1.4-0.5,2.2    c-0.5,1.1-1.2,2-2.2,2.6c-1,0.6-2,0.9-3.2,0.9c-1.2,0-2.2-0.4-3.2-1c-0.3-0.3-0.7-0.6-1.2-1.1c-0.5-0.5-0.9-1-1.4-1.6    c-0.5-0.6-0.8-1.2-1.1-1.8c-0.3-0.6-0.3-1.2-0.2-1.7c0.1-0.5,0.5-0.9,1.1-1.2c0.4-0.2,0.8-0.4,1.2-0.4c0.4,0,0.8,0.1,1.2,0.3    c0.3,0.2,0.7,0.6,1.1,1.2c0.4,0.5,0.9,1,1.3,1.4s0.9,0.7,1.3,0.8c0.4-0.3,0.5-0.7,0.3-1.3c-0.2-0.6-0.5-1.2-1-2    c-0.5-0.7-1.1-1.6-1.7-2.5c-0.6-0.9-1.1-1.9-1.6-2.9c-0.5-1-0.7-2-0.8-3.1c0-1.1,0.2-2.1,0.8-3.1c0.6-1.3,1.5-2.4,2.5-3.4    c1.1-1,2.2-1.7,3.5-2.2c1.2-0.5,2.6-0.6,3.9-0.5C83.5,17.7,84.7,18.2,85.9,19z"></path>		<path class="st1" d="M104.4,20.3c0.2,0.2,0.4,0.5,0.5,0.7c0.1,0.3,0.2,0.5,0.3,0.8c0,0.3,0,0.5-0.2,0.7c-0.2,0.2-0.5,0.3-0.9,0.2    c-3.5,0-6.5,0.2-9,0.6c0,0.2-0.2,0.8-0.4,1.8c-0.2,1-0.4,1.8-0.6,2.3c1.5-0.3,2.9-0.2,4.3,0.4c1.4,0.5,2.3,1.4,2.8,2.7    c0.1,0.3,0.1,0.6,0,0.8c-0.1,0.2-0.3,0.3-0.6,0.3c-2.8,0-5.4,0.2-7.9,0.8c-0.2,0.8-0.4,1.6-0.7,2.4c-0.5,1.4-0.7,2.2-0.8,2.5    c-0.1,0.5-0.1,0.7-0.1,0.8c0.1,0.1,0.3,0,0.8,0c3.1-0.3,5.8-0.8,8.2-1.5c0.2-0.1,0.4-0.1,0.5-0.1c0.1,0,0.2,0.1,0.4,0.3    c0.6,0.7,0.4,1.7-0.5,2.9c-0.4,0.6-0.9,1.1-1.6,1.5c-0.6,0.4-1.4,0.7-2.3,1c-0.9,0.2-1.6,0.4-2.2,0.5c-0.6,0.1-1.4,0.2-2.4,0.3    c-0.1,0-0.3,0-0.8,0.1c-0.5,0.1-0.8,0.1-1,0.1c-0.2,0-0.4,0-0.9,0c-0.4,0-0.7,0-1,0c-0.2,0-0.5-0.1-0.8-0.2    c-0.3-0.1-0.6-0.2-0.8-0.4c-1.4-1-1.9-2.2-1.5-3.5c3.1-11.3,4.9-17.7,5.2-19.1c0.2-0.9,0.4-1.4,0.6-1.5c0.2-0.2,0.8-0.3,1.7-0.3    c0.4,0,1.1-0.1,2-0.1c1-0.1,1.7-0.1,2.2-0.2c0.5,0,1.2,0,2,0c0.8,0,1.5,0.1,2,0.3c0.5,0.2,1.1,0.4,1.7,0.8    C103.4,19.3,103.9,19.8,104.4,20.3z"></path>		<path class="st1" d="M189.8,21.5c0.2,0.2,0.4,0.5,0.5,0.7c0.1,0.3,0.2,0.5,0.3,0.8c0,0.3,0,0.5-0.2,0.7c-0.2,0.2-0.5,0.3-0.9,0.2    c-3.5,0-6.5,0.2-9,0.6c0,0.2-0.2,0.8-0.4,1.8s-0.4,1.8-0.6,2.3c1.5-0.3,2.9-0.2,4.3,0.4c1.4,0.5,2.3,1.4,2.8,2.7    c0.1,0.3,0.1,0.6,0,0.8c-0.1,0.2-0.3,0.3-0.6,0.3c-2.8,0-5.4,0.2-7.9,0.8c-0.2,0.8-0.4,1.6-0.7,2.4c-0.5,1.4-0.7,2.2-0.8,2.5    c-0.1,0.5-0.1,0.7-0.1,0.8c0.1,0.1,0.3,0,0.8,0c3.1-0.3,5.8-0.8,8.2-1.5c0.2-0.1,0.4-0.1,0.5-0.1c0.1,0,0.2,0.1,0.4,0.3    c0.6,0.7,0.4,1.7-0.5,2.9c-0.4,0.6-0.9,1.1-1.6,1.5c-0.6,0.4-1.4,0.7-2.3,1c-0.9,0.2-1.6,0.4-2.2,0.5s-1.4,0.2-2.4,0.3    c-0.1,0-0.3,0-0.8,0.1c-0.5,0.1-0.8,0.1-1,0.1c-0.2,0-0.4,0-0.9,0c-0.4,0-0.7,0-1,0c-0.2,0-0.5-0.1-0.8-0.2    c-0.3-0.1-0.6-0.2-0.8-0.4c-1.4-1-1.9-2.2-1.5-3.5c3.1-11.3,4.9-17.7,5.2-19.1c0.2-0.9,0.4-1.4,0.6-1.5c0.2-0.2,0.8-0.3,1.7-0.3    c0.4,0,1.1-0.1,2-0.1c1-0.1,1.7-0.1,2.2-0.2c0.5,0,1.2,0,2,0c0.8,0,1.5,0.1,2,0.3c0.5,0.2,1.1,0.4,1.7,0.8    C188.8,20.5,189.3,20.9,189.8,21.5z"></path>		<path class="st1" d="M222.1,22c0.2,0.2,0.4,0.5,0.5,0.7c0.1,0.3,0.2,0.5,0.3,0.8c0,0.3,0,0.5-0.2,0.7c-0.2,0.2-0.5,0.3-0.9,0.2    c-3.5,0-6.5,0.2-9,0.6c0,0.2-0.2,0.8-0.4,1.8c-0.2,1-0.4,1.8-0.6,2.3c1.5-0.3,2.9-0.2,4.3,0.4c1.4,0.5,2.3,1.4,2.8,2.7    c0.1,0.3,0.1,0.6,0,0.8c-0.1,0.2-0.3,0.3-0.6,0.3c-2.8,0-5.4,0.2-7.9,0.8c-0.2,0.8-0.4,1.6-0.7,2.4c-0.5,1.4-0.7,2.2-0.8,2.5    c-0.1,0.5-0.1,0.7-0.1,0.8c0.1,0.1,0.3,0,0.8,0c3.1-0.3,5.8-0.8,8.2-1.5c0.2-0.1,0.4-0.1,0.5-0.1c0.1,0,0.2,0.1,0.4,0.3    c0.6,0.7,0.4,1.7-0.5,2.9c-0.4,0.6-0.9,1.1-1.6,1.5c-0.6,0.4-1.4,0.7-2.3,1c-0.9,0.2-1.6,0.4-2.2,0.5c-0.6,0.1-1.4,0.2-2.4,0.3    c-0.1,0-0.3,0-0.8,0.1c-0.5,0.1-0.8,0.1-1,0.1c-0.2,0-0.4,0-0.9,0c-0.4,0-0.7,0-1,0c-0.2,0-0.5-0.1-0.8-0.2    c-0.3-0.1-0.6-0.2-0.8-0.4c-1.4-1-1.9-2.2-1.5-3.5c3.1-11.3,4.9-17.7,5.2-19.1c0.2-0.9,0.4-1.4,0.6-1.5c0.2-0.2,0.8-0.3,1.7-0.3    c0.4,0,1.1-0.1,2-0.1c1-0.1,1.7-0.1,2.2-0.2c0.5,0,1.2,0,2,0c0.8,0,1.5,0.1,2,0.3c0.5,0.2,1.1,0.4,1.7,0.8    C221.1,21,221.7,21.4,222.1,22z"></path>		<path class="st1" d="M117,28.9c0.3,0.4,0.3,1.1,0,2.1c-0.3,1-0.7,1.7-1,2.2c-0.1,0.2-0.2,0.3-0.4,0.3c-0.2,0.1-0.5,0.1-0.7,0.1    c-0.3,0-0.6,0-0.8,0c-0.2,0-0.6,0-0.9,0c-0.4,0-0.6,0-0.8,0c-0.9,0-2.2,0-3.8-0.1c-1.6-0.1-2.7-0.1-3.1-0.2    c-0.1,0-0.3-0.1-0.5-0.1c-0.2,0-0.4-0.1-0.5-0.1c-0.2,0-0.5,0-1-0.1c-0.5,0-0.9-0.1-1.1-0.2c0-0.1-0.1-0.1-0.2-0.2    c-0.1-0.1-0.1-0.1-0.2-0.2c0-0.8,0.1-1.5,0.3-2.2c0.2-0.7,0.5-1.2,0.9-1.6c0.2,0,0.5-0.1,0.7-0.1c0.3,0,0.5,0,0.9,0    c0.3,0,0.5,0,0.7,0c1.2,0,2.4,0.1,3.7,0.1c1.3,0,2.7,0.1,4.3,0.1C114.9,28.9,116.2,28.9,117,28.9z"></path>		<path class="st1" d="M149.8,29.5c0.3,0.4,0.3,1.1,0,2.1c-0.3,1-0.7,1.7-1,2.2c-0.1,0.2-0.2,0.3-0.4,0.3c-0.2,0.1-0.5,0.1-0.7,0.1    c-0.3,0-0.6,0-0.8,0c-0.2,0-0.6,0-0.9,0c-0.4,0-0.6,0-0.8,0c-0.9,0-2.2,0-3.8-0.1c-1.6-0.1-2.7-0.1-3.1-0.2    c-0.1,0-0.3-0.1-0.5-0.1c-0.2,0-0.4-0.1-0.5-0.1c-0.2,0-0.5,0-1-0.1c-0.5,0-0.9-0.1-1.1-0.2c0-0.1-0.1-0.1-0.2-0.2    s-0.1-0.1-0.2-0.2c0-0.8,0.1-1.5,0.3-2.2c0.2-0.7,0.5-1.2,0.9-1.6c0.2,0,0.5-0.1,0.7-0.1c0.3,0,0.5,0,0.9,0s0.5,0,0.7,0    c1.2,0,2.4,0.1,3.7,0.1c1.3,0,2.7,0.1,4.3,0.1C147.7,29.5,148.9,29.5,149.8,29.5z"></path>		<path class="st1" d="M170.4,18.5c0.6,0.3,1.2,0.6,1.7,1.1c0.5,0.5,0.9,0.9,1.1,1.4c-1.2,4.4-2,7.5-2.4,9.3    c-0.3,1.4-0.7,2.8-1.1,4.2c-0.4,1.5-0.9,3.1-1.5,5c-0.6,1.9-1,3.3-1.2,4.2c-0.2,0.9-0.4,1.4-0.6,1.5c-0.2,0.1-0.7-0.2-1.3-0.9    c-0.6-0.4-1-0.8-1.3-1.1c-0.3-0.3-0.5-0.5-0.7-0.7c-0.2-0.2-0.2-0.4-0.2-0.7c0-0.3,0.1-0.5,0.1-0.7c0-0.2,0.1-0.6,0.3-1.1    s0.2-1,0.3-1.5c0.4-1.3,0.5-1.9,0.4-1.9c-0.1,0-0.6,0.7-1.5,2.2c-0.6,1.1-1.1,1.7-1.3,2c-0.5,1-1,1.7-1.6,2.1    c-0.6,0.4-1.1,0.4-1.7,0.2c-0.6-0.2-1.3-0.8-2-1.6c-0.1-0.4-0.2-1.2-0.2-2.3c-0.1-1.1-0.2-1.8-0.3-2.2c-0.7,2.7-1.3,4.8-1.7,6.4    c-0.1,0.4-0.3,0.7-0.6,0.7c-0.3,0.1-0.5,0-0.8-0.2c-0.5-0.2-1.1-0.6-1.6-1c-0.6-0.4-1-0.9-1.3-1.3c-0.3-0.5-0.4-0.8-0.4-1    c0-0.2,0.1-0.6,0.2-1c0.5-2,0.8-3.4,1-4.1c0.3-1.1,0.7-2.6,1.2-4.5c0.5-1.9,1-3.7,1.5-5.3c0.5-1.6,1-3.1,1.6-4.4    c0.4-1.1,1-1.8,1.8-2.3c0.8-0.5,1.7-0.6,2.7-0.3c0.4,0.1,0.7,0.4,0.9,0.7c0.2,0.4,0.3,0.8,0.3,1.3c0,0.5,0,1-0.1,1.5    c0,0.5-0.1,1.1-0.2,1.6c-0.1,0.6-0.1,1,0,1.3c0,0.1-0.1,1.6-0.3,4.4c-0.2,2.3-0.1,3.4,0.1,3.4c0.1,0,0.3-0.2,0.4-0.6    c0.3-0.5,0.9-1.3,1.6-2.5c0.8-1.2,1.4-2.1,1.8-2.7c0.4-0.6,0.9-1.4,1.5-2.4c0.6-1,1.1-1.9,1.6-2.7c0.5-0.8,0.9-1.7,1.3-2.5    c0.2-0.5,0.5-0.9,0.8-1.1c0.3-0.2,0.6-0.3,0.8-0.3C169.7,18.2,170,18.3,170.4,18.5z"></path>		<path class="st1" d="M202.7,19.1c1.1,0,1.9,0,2.6,0.1c0.7,0.1,1.3,0.2,1.7,0.4c0.5,0.2,0.7,0.5,0.8,0.8c0,0.4-0.1,0.8-0.5,1.4    c-0.4,0.6-1,1.3-1.8,2.2c-0.3,0-0.7,0-1.1,0c-0.4,0-0.7,0-0.9,0c-0.2,0-0.4,0-0.7,0c-0.2,0-0.5,0-0.6,0.1c-0.2,0-0.3,0.1-0.4,0.2    c-0.2,0.2-0.4,0.4-0.6,0.7c-0.1,0.3-0.3,0.9-0.4,1.7c-0.1,0.3-0.3,1.3-0.7,2.9c-0.4,1.7-0.8,3.4-1.3,5.2c-0.5,1.8-1,3.6-1.6,5.4    c-0.6,1.8-1.1,3.2-1.7,4.2c-0.6,1-1.1,1.3-1.6,0.9c-0.2-0.1-0.5-0.2-0.7-0.4c-0.3-0.2-0.5-0.3-0.6-0.4c-0.1-0.1-0.3-0.3-0.6-0.6    c-0.3-0.3-0.5-0.5-0.5-0.5c-0.1-0.2-0.2-0.4-0.3-0.8c0-0.3,0-0.6,0-0.8c0.4-1.6,1.1-4.1,2-7.3c0.2-0.6,0.5-1.7,0.8-3.1    c0.3-1.4,0.6-2.5,0.9-3.3c0.6-2.4,1-3.6,1-3.8c-0.1,0-0.2,0.1-0.4,0.1c-0.2,0-0.4,0.1-0.4,0.1c-0.1,0-0.2,0-0.5,0    c-0.6,0.2-1.6,0.4-3,0.6c-0.2-0.6-0.3-1.5-0.2-2.7c0.1-1.1,0.3-1.9,0.6-2.4c1-0.2,2.2-0.4,3.6-0.6c1.3-0.1,2.4-0.2,3.4-0.3    C199.9,19.1,201.2,19.1,202.7,19.1z"></path>		<path class="st1" d="M231.6,40.7c0.3,0.3,0.8,0.8,1.4,1.5c0.6,0.7,0.9,1.1,1.1,1.3c0.2,0.2,0.3,0.3,0.4,0.4    c0.1,0.1,0.1,0.2,0.1,0.4c0,0.2-0.1,0.4-0.2,0.6c-1,0.6-2.1,0.8-3.2,0.6c-1.1-0.2-2.1-0.7-3.1-1.4c-0.9-0.7-1.7-1.5-2.3-2.5    c-0.1-0.1-0.3-0.3-0.5-0.6c-0.2-0.3-0.4-0.5-0.5-0.6c-0.2,0.4-0.4,1.2-0.7,2.3c-0.3,1.1-0.5,1.9-0.8,2.4c-0.2,0.6-0.6,0.7-1.1,0.3    c-0.9-0.6-1.7-1.3-2.4-2.1c-0.2-0.2-0.3-0.4-0.3-0.6c0-0.2,0-0.4,0.1-0.7c1.7-7,3.6-14.3,5.7-21.8c0-0.3,0.1-0.5,0.1-0.7    c0.1-0.2,0.2-0.3,0.3-0.4c0.2-0.1,0.3-0.1,0.5-0.2c0.2,0,0.3,0,0.6,0c0.2,0,0.4,0.1,0.6,0.1c0.2,0,0.4,0.1,0.6,0.2    c0.2,0.1,0.4,0.1,0.5,0.2c0.1,0,0.3-0.1,0.7-0.2c0.4-0.1,0.7-0.2,0.8-0.2c1.3-0.1,2.5-0.1,3.5,0.2c1,0.3,1.8,0.7,2.4,1.3    c0.6,0.6,1,1.2,1.4,2c0.3,0.8,0.5,1.6,0.5,2.5c0,0.9-0.1,1.8-0.4,2.8c-0.2,1-0.6,1.9-1.1,2.7c-0.5,0.9-1,1.7-1.7,2.4    c-0.7,0.7-1.4,1.4-2.2,1.8c-0.4,0.3-0.8,0.5-1.2,0.8c-0.4,0.2-0.7,0.4-0.9,0.5c-0.2,0.1-0.4,0.2-0.6,0.4c-0.2,0.1-0.3,0.2-0.4,0.3    c0,0-0.1,0.1-0.1,0.3c0,0.1,0,0.2,0.1,0.3c0.1,0.1,0.2,0.2,0.3,0.5c0.1,0.2,0.3,0.4,0.5,0.6c0.2,0.2,0.4,0.5,0.7,0.9    C231,39.9,231.3,40.3,231.6,40.7z M231.8,24.6c-0.2,0-0.4,0-0.6,0c-1,0-1.6,0.1-1.7,0.2c-0.2,0.1-0.4,0.5-0.5,1.1    c-0.2,0.6-0.3,1.2-0.5,1.6c-0.1,0.4-0.3,1.1-0.5,2c-0.2,0.9-0.3,1.5-0.4,1.9c0.6-0.3,1.1-0.7,1.5-0.9c0.4-0.3,0.9-0.6,1.4-1.1    c0.5-0.5,1-0.9,1.3-1.3c0.3-0.4,0.6-0.9,0.8-1.5c0.2-0.6,0.3-1.2,0.3-1.7C232.8,24.7,232.4,24.6,231.8,24.6z"></path>	</g></g><g>	<g>		<path class="st2" d="M37.2,20.4c0.1,0.2,0,0.6-0.2,1.2c-0.3,0.6-0.6,1.4-0.9,2.5c-0.3,1.1-0.6,1.9-0.7,2.3c-0.5,2-0.8,3.6-0.9,5    c-0.1,0.5-0.2,0.8-0.6,0.9c-0.3,0.1-0.8-0.1-1.4-0.6c-1-0.7-1.7-1.8-2-3.1c-0.3-1.3-0.3-2.5,0.1-3.7c-1.7,1-3.1,2.3-4.4,4    c-1.3,1.7-2.2,3.6-2.9,5.6c-0.3,0.8-0.6,1.6-0.7,2.4c-0.1,0.8-0.1,1.5,0.1,2c0.1,0.6,0.4,1,0.7,1.4c0.3,0.4,0.8,0.5,1.2,0.6    c0.5,0,1-0.1,1.7-0.5c0.6-0.4,1.3-1,2-1.7c0.4-0.4,0.4-0.6-0.1-0.5c-0.2,0-0.6,0.1-1.2,0.2c-0.6,0.2-1,0.2-1.1,0.2    c-0.7,0.2-1.1,0.3-1.2,0.3c-0.2,0-0.4,0-0.5-0.1c-0.1-0.1-0.2-0.4-0.2-0.8c-0.1-0.9,0.1-2,0.4-3.1c0-0.9,0.8-1.4,2.3-1.5    c1-0.3,2-0.4,2.9-0.4c0.9,0,1.8,0.3,2.6,0.8c0.8,0.5,1.3,1.2,1.7,2.1c0.2,0.6,0.3,1.1,0.3,1.4c0,0.3-0.1,0.7-0.4,1.1    c-0.6,1.1-1.2,2-2,2.9c-0.8,0.9-1.6,1.6-2.5,2.1c-0.9,0.6-1.8,1-2.8,1.2c-1,0.3-1.9,0.4-2.8,0.3c-0.9,0-1.7-0.3-2.5-0.7    c-0.8-0.4-1.4-1-1.9-1.8c-0.5-0.7-0.9-1.7-1.1-3c-0.2-1.2-0.2-2.6,0-4.2c0.4-2.2,1.1-4.4,2.2-6.6s2.5-4.2,4.1-5.9    c1.6-1.7,3.5-2.9,5.5-3.5s4.2-0.3,6.4,0.7c0.2,0.1,0.4,0.2,0.4,0.2C37.1,20.3,37.1,20.3,37.2,20.4z"></path>		<path class="st2" d="M51.3,19.8c1.5,1.1,2.3,2.9,2.5,5.2c0.2,2.3-0.1,4.7-0.9,7.2c-0.8,2.4-1.8,4.8-3.1,7    c-1.3,2.2-2.7,3.9-4.1,4.9c-1.6,1-3,1.3-4.3,1.1c-1.3-0.2-2.4-0.9-3.2-1.8c-0.9-1-1.5-2.2-1.9-3.7s-0.4-3-0.2-4.5    c0.7-5,2.5-9.3,5.4-12.8c1.3-1.8,2.9-2.9,4.6-3.5C47.9,18.3,49.6,18.6,51.3,19.8z M42.1,40.1c0.2,0,0.4,0,0.6,0    c0.2,0,0.5-0.1,0.8-0.3c0.4-0.2,0.7-0.6,1.1-1.1c0.4-0.5,1-1.5,1.6-2.9c0.6-1.4,1.2-2.9,1.8-4.5c0.5-1.6,0.8-3.1,0.9-4.3    c0-1.3-0.4-2.1-1.2-2.3c-0.7,0.2-1.4,0.7-2.3,1.7c-0.9,1-1.6,2.1-2.3,3.5c-0.7,1.3-1.3,2.7-1.7,4.1c-0.5,1.4-0.6,2.7-0.5,3.8    C40.9,38.9,41.4,39.7,42.1,40.1z"></path>		<path class="st2" d="M69.1,19.8c1.5,1.1,2.3,2.9,2.5,5.2c0.2,2.3-0.1,4.7-0.9,7.2c-0.8,2.4-1.8,4.8-3.1,7C66.3,41.4,65,43,63.6,44    c-1.6,1-3,1.3-4.3,1.1c-1.3-0.2-2.4-0.9-3.2-1.8c-0.9-1-1.5-2.2-1.9-3.7s-0.4-3-0.2-4.5c0.7-5,2.5-9.3,5.4-12.8    c1.3-1.8,2.9-2.9,4.6-3.5C65.8,18.3,67.5,18.6,69.1,19.8z M60,40.1c0.2,0,0.4,0,0.6,0c0.2,0,0.5-0.1,0.8-0.3    c0.4-0.2,0.7-0.6,1.1-1.1c0.4-0.5,1-1.5,1.6-2.9c0.6-1.4,1.2-2.9,1.8-4.5c0.5-1.6,0.8-3.1,0.9-4.3c0-1.3-0.4-2.1-1.2-2.3    c-0.7,0.2-1.4,0.7-2.3,1.7c-0.9,1-1.6,2.1-2.3,3.5c-0.7,1.3-1.3,2.7-1.7,4.1c-0.5,1.4-0.6,2.7-0.5,3.8    C58.8,38.9,59.2,39.7,60,40.1z"></path>		<path class="st2" d="M133.8,20.9c1.5,1.1,2.3,2.9,2.5,5.2c0.2,2.3-0.1,4.7-0.9,7.2c-0.8,2.4-1.8,4.8-3.1,7    c-1.3,2.2-2.7,3.9-4.1,4.9c-1.6,1-3,1.3-4.3,1.1c-1.3-0.2-2.4-0.9-3.2-1.8c-0.9-1-1.5-2.2-1.9-3.7s-0.4-3-0.2-4.5    c0.7-5,2.5-9.3,5.4-12.8c1.3-1.8,2.9-2.9,4.6-3.5C130.4,19.5,132.1,19.8,133.8,20.9z M124.6,41.3c0.2,0,0.4,0,0.6,0    c0.2,0,0.5-0.1,0.8-0.3c0.4-0.2,0.7-0.6,1.1-1.1c0.4-0.5,1-1.5,1.6-2.9c0.6-1.4,1.2-2.9,1.8-4.5c0.5-1.6,0.8-3.1,0.9-4.3    c0-1.3-0.4-2.1-1.2-2.3c-0.7,0.2-1.4,0.7-2.3,1.7c-0.9,1-1.6,2.1-2.3,3.5c-0.7,1.3-1.3,2.7-1.7,4.1c-0.5,1.4-0.6,2.7-0.5,3.8    S123.8,40.9,124.6,41.3z M167.1,41.6C167.1,41.6,167.1,41.6,167.1,41.6C167.2,41.6,167.1,41.6,167.1,41.6z M167.2,41.4    C167.2,41.5,167.2,41.5,167.2,41.4C167.2,41.5,167.2,41.5,167.2,41.4L167.2,41.4z"></path>		<path class="st2" d="M87.6,20.8c0.4,0.2,0.6,0.4,0.8,0.6c0.1,0.2,0.1,0.5,0,0.8c-0.2,0.3-0.4,0.8-0.7,1.4    c-0.3,0.7-0.6,1.2-0.8,1.6c-0.2,0.4-0.4,0.9-0.7,1.4c-0.3,0.6-0.5,1.1-0.7,1.6c-0.1,0.2-0.2,0.7-0.3,1.3c-0.1,0.7-0.3,1.2-0.5,1.6    c-0.2,0.4-0.5,0.6-0.8,0.6c-1.1-0.4-1.9-1.2-2.3-2.5c-0.5-1.2-0.6-2.4-0.2-3.6c-1.5,0.8-2.3,1.7-2.6,2.8c0.2,0.6,0.4,1.2,0.8,1.8    c0.3,0.7,0.7,1.3,1.1,1.8c0.4,0.6,0.7,1.2,1.1,1.8c0.4,0.6,0.7,1.2,1,1.9c0.3,0.6,0.5,1.3,0.7,1.9c0.2,0.6,0.3,1.3,0.2,2    c0,0.7-0.2,1.4-0.5,2.2c-0.5,1.1-1.2,2-2.2,2.6c-1,0.6-2,0.9-3.2,0.9c-1.2,0-2.2-0.4-3.2-1c-0.3-0.3-0.7-0.6-1.2-1.1    c-0.5-0.5-0.9-1-1.4-1.6c-0.5-0.6-0.8-1.2-1.1-1.8c-0.3-0.6-0.3-1.2-0.2-1.7c0.1-0.5,0.5-0.9,1.1-1.2c0.4-0.2,0.8-0.4,1.2-0.4    c0.4,0,0.8,0.1,1.2,0.3c0.3,0.2,0.7,0.6,1.1,1.2c0.4,0.5,0.9,1,1.3,1.4c0.4,0.4,0.9,0.7,1.3,0.8c0.4-0.3,0.5-0.7,0.3-1.3    c-0.2-0.6-0.5-1.2-1-2c-0.5-0.7-1.1-1.6-1.7-2.5c-0.6-0.9-1.1-1.9-1.6-2.9c-0.5-1-0.7-2-0.8-3.1c0-1.1,0.2-2.1,0.8-3.1    c0.6-1.3,1.5-2.4,2.5-3.4c1.1-1,2.2-1.7,3.5-2.2c1.2-0.5,2.6-0.6,3.9-0.5C85.2,19.6,86.4,20,87.6,20.8z"></path>		<path class="st2" d="M106.1,22.2c0.2,0.2,0.4,0.5,0.5,0.7c0.1,0.3,0.2,0.5,0.3,0.8c0,0.3,0,0.5-0.2,0.7c-0.2,0.2-0.5,0.3-0.9,0.2    c-3.5,0-6.5,0.2-9,0.6c0,0.2-0.2,0.8-0.4,1.8c-0.2,1-0.4,1.8-0.6,2.3c1.5-0.3,2.9-0.2,4.3,0.4c1.4,0.5,2.3,1.4,2.8,2.7    c0.1,0.3,0.1,0.6,0,0.8c-0.1,0.2-0.3,0.3-0.6,0.3c-2.8,0-5.4,0.2-7.9,0.8c-0.2,0.8-0.4,1.6-0.7,2.4c-0.5,1.4-0.7,2.2-0.8,2.5    c-0.1,0.5-0.1,0.7-0.1,0.8c0.1,0.1,0.3,0,0.8,0c3.1-0.3,5.8-0.8,8.2-1.5c0.2-0.1,0.4-0.1,0.5-0.1c0.1,0,0.2,0.1,0.4,0.3    c0.6,0.7,0.4,1.7-0.5,2.9c-0.4,0.6-0.9,1.1-1.6,1.5c-0.6,0.4-1.4,0.7-2.3,1c-0.9,0.2-1.6,0.4-2.2,0.5c-0.6,0.1-1.4,0.2-2.4,0.3    c-0.1,0-0.3,0-0.8,0.1c-0.5,0.1-0.8,0.1-1,0.1c-0.2,0-0.4,0-0.9,0c-0.4,0-0.7,0-1,0c-0.2,0-0.5-0.1-0.8-0.2    c-0.3-0.1-0.6-0.2-0.8-0.4c-1.4-1-1.9-2.2-1.5-3.5c3.1-11.3,4.9-17.7,5.2-19.1c0.2-0.9,0.4-1.4,0.6-1.5c0.2-0.2,0.8-0.3,1.7-0.3    c0.4,0,1.1-0.1,2-0.1c1-0.1,1.7-0.1,2.2-0.2c0.5,0,1.2,0,2,0c0.8,0,1.5,0.1,2,0.3c0.5,0.2,1.1,0.4,1.7,0.8    C105.1,21.2,105.6,21.6,106.1,22.2z"></path>		<path class="st2" d="M191.5,23.3c0.2,0.2,0.4,0.5,0.5,0.7c0.1,0.3,0.2,0.5,0.3,0.8c0,0.3,0,0.5-0.2,0.7c-0.2,0.2-0.5,0.3-0.9,0.2    c-3.5,0-6.5,0.2-9,0.6c0,0.2-0.2,0.8-0.4,1.8c-0.2,1-0.4,1.8-0.6,2.3c1.5-0.3,2.9-0.2,4.3,0.4c1.4,0.5,2.3,1.4,2.8,2.7    c0.1,0.3,0.1,0.6,0,0.8c-0.1,0.2-0.3,0.3-0.6,0.3c-2.8,0-5.4,0.2-7.9,0.8c-0.2,0.8-0.4,1.6-0.7,2.4c-0.5,1.4-0.7,2.2-0.8,2.5    c-0.1,0.5-0.1,0.7-0.1,0.8c0.1,0.1,0.3,0,0.8,0c3.1-0.3,5.8-0.8,8.2-1.5c0.2-0.1,0.4-0.1,0.5-0.1c0.1,0,0.2,0.1,0.4,0.3    c0.6,0.7,0.4,1.7-0.5,2.9c-0.4,0.6-0.9,1.1-1.6,1.5c-0.6,0.4-1.4,0.7-2.3,1c-0.9,0.2-1.6,0.4-2.2,0.5c-0.6,0.1-1.4,0.2-2.4,0.3    c-0.1,0-0.3,0-0.8,0.1c-0.5,0.1-0.8,0.1-1,0.1c-0.2,0-0.4,0-0.9,0c-0.4,0-0.7,0-1,0c-0.2,0-0.5-0.1-0.8-0.2    c-0.3-0.1-0.6-0.2-0.8-0.4c-1.4-1-1.9-2.2-1.5-3.5c3.1-11.3,4.9-17.7,5.2-19.1c0.2-0.9,0.4-1.4,0.6-1.5c0.2-0.2,0.8-0.3,1.7-0.3    c0.4,0,1.1-0.1,2-0.1c1-0.1,1.7-0.1,2.2-0.2c0.5,0,1.2,0,2,0c0.8,0,1.5,0.1,2,0.3c0.5,0.2,1.1,0.4,1.7,0.8    C190.5,22.4,191,22.8,191.5,23.3z"></path>		<path class="st2" d="M223.8,23.8c0.2,0.2,0.4,0.5,0.5,0.7c0.1,0.3,0.2,0.5,0.3,0.8c0,0.3,0,0.5-0.2,0.7c-0.2,0.2-0.5,0.3-0.9,0.2    c-3.5,0-6.5,0.2-9,0.6c0,0.2-0.2,0.8-0.4,1.8s-0.4,1.8-0.6,2.3c1.5-0.3,2.9-0.2,4.3,0.4c1.4,0.5,2.3,1.4,2.8,2.7    c0.1,0.3,0.1,0.6,0,0.8c-0.1,0.2-0.3,0.3-0.6,0.3c-2.8,0-5.4,0.2-7.9,0.8c-0.2,0.8-0.4,1.6-0.7,2.4c-0.5,1.4-0.7,2.2-0.8,2.5    c-0.1,0.5-0.1,0.7-0.1,0.8c0.1,0.1,0.3,0,0.8,0c3.1-0.3,5.8-0.8,8.2-1.5c0.2-0.1,0.4-0.1,0.5-0.1c0.1,0,0.2,0.1,0.4,0.3    c0.6,0.7,0.4,1.7-0.5,2.9c-0.4,0.6-0.9,1.1-1.6,1.5c-0.6,0.4-1.4,0.7-2.3,1c-0.9,0.2-1.6,0.4-2.2,0.5s-1.4,0.2-2.4,0.3    c-0.1,0-0.3,0-0.8,0.1c-0.5,0.1-0.8,0.1-1,0.1c-0.2,0-0.4,0-0.9,0c-0.4,0-0.7,0-1,0c-0.2,0-0.5-0.1-0.8-0.2    c-0.3-0.1-0.6-0.2-0.8-0.4c-1.4-1-1.9-2.2-1.5-3.5c3.1-11.3,4.9-17.7,5.2-19.1c0.2-0.9,0.4-1.4,0.6-1.5c0.2-0.2,0.8-0.3,1.7-0.3    c0.4,0,1.1-0.1,2-0.1c1-0.1,1.7-0.1,2.2-0.2c0.5,0,1.2,0,2,0c0.8,0,1.5,0.1,2,0.3c0.5,0.2,1.1,0.4,1.7,0.8    C222.8,22.8,223.4,23.3,223.8,23.8z"></path>		<path class="st2" d="M118.7,30.8c0.3,0.4,0.3,1.1,0,2.1c-0.3,1-0.7,1.7-1,2.2c-0.1,0.2-0.2,0.3-0.4,0.3c-0.2,0.1-0.5,0.1-0.7,0.1    c-0.3,0-0.6,0-0.8,0c-0.2,0-0.6,0-0.9,0c-0.4,0-0.6,0-0.8,0c-0.9,0-2.2,0-3.8-0.1c-1.6-0.1-2.7-0.1-3.1-0.2    c-0.1,0-0.3-0.1-0.5-0.1c-0.2,0-0.4-0.1-0.5-0.1c-0.2,0-0.5,0-1-0.1c-0.5,0-0.9-0.1-1.1-0.2c0-0.1-0.1-0.1-0.2-0.2    c-0.1-0.1-0.1-0.1-0.2-0.2c0-0.8,0.1-1.5,0.3-2.2c0.2-0.7,0.5-1.2,0.9-1.6c0.2,0,0.5-0.1,0.7-0.1c0.3,0,0.5,0,0.9,0    c0.3,0,0.5,0,0.7,0c1.2,0,2.4,0.1,3.7,0.1c1.3,0,2.7,0.1,4.3,0.1C116.6,30.8,117.9,30.8,118.7,30.8z"></path>		<path class="st2" d="M151.5,31.4c0.3,0.4,0.3,1.1,0,2.1c-0.3,1-0.7,1.7-1,2.2c-0.1,0.2-0.2,0.3-0.4,0.3c-0.2,0.1-0.5,0.1-0.7,0.1    c-0.3,0-0.6,0-0.8,0c-0.2,0-0.6,0-0.9,0c-0.4,0-0.6,0-0.8,0c-0.9,0-2.2,0-3.8-0.1c-1.6-0.1-2.7-0.1-3.1-0.2    c-0.1,0-0.3-0.1-0.5-0.1c-0.2,0-0.4-0.1-0.5-0.1c-0.2,0-0.5,0-1-0.1c-0.5,0-0.9-0.1-1.1-0.2c0-0.1-0.1-0.1-0.2-0.2    c-0.1-0.1-0.1-0.1-0.2-0.2c0-0.8,0.1-1.5,0.3-2.2c0.2-0.7,0.5-1.2,0.9-1.6c0.2,0,0.5-0.1,0.7-0.1c0.3,0,0.5,0,0.9,0    c0.3,0,0.5,0,0.7,0c1.2,0,2.4,0.1,3.7,0.1s2.7,0.1,4.3,0.1C149.4,31.3,150.6,31.3,151.5,31.4z"></path>		<path class="st2" d="M172.1,20.3c0.6,0.3,1.2,0.6,1.7,1.1c0.5,0.5,0.9,0.9,1.1,1.4c-1.2,4.4-2,7.5-2.4,9.3    c-0.3,1.4-0.7,2.8-1.1,4.2c-0.4,1.5-0.9,3.1-1.5,5c-0.6,1.9-1,3.3-1.2,4.2c-0.2,0.9-0.4,1.4-0.6,1.5c-0.2,0.1-0.7-0.2-1.3-0.9    c-0.6-0.4-1-0.8-1.3-1.1c-0.3-0.3-0.5-0.5-0.7-0.7c-0.2-0.2-0.2-0.4-0.2-0.7c0-0.3,0.1-0.5,0.1-0.7c0-0.2,0.1-0.6,0.3-1.1    c0.1-0.5,0.2-1,0.3-1.5c0.4-1.3,0.5-1.9,0.4-1.9c-0.1,0-0.6,0.7-1.5,2.2c-0.6,1.1-1.1,1.7-1.3,2c-0.5,1-1,1.7-1.6,2.1    c-0.6,0.4-1.1,0.4-1.7,0.2c-0.6-0.2-1.3-0.8-2-1.6c-0.1-0.4-0.2-1.2-0.2-2.3c-0.1-1.1-0.2-1.8-0.3-2.2c-0.7,2.7-1.3,4.8-1.7,6.4    c-0.1,0.4-0.3,0.7-0.6,0.7c-0.3,0.1-0.5,0-0.8-0.2c-0.5-0.2-1.1-0.6-1.6-1c-0.6-0.4-1-0.9-1.3-1.3c-0.3-0.5-0.4-0.8-0.4-1    c0-0.2,0.1-0.6,0.2-1c0.5-2,0.8-3.4,1-4.1c0.3-1.1,0.7-2.6,1.2-4.5c0.5-1.9,1-3.7,1.5-5.3c0.5-1.6,1-3.1,1.6-4.4    c0.4-1.1,1-1.8,1.8-2.3c0.8-0.5,1.7-0.6,2.7-0.3c0.4,0.1,0.7,0.4,0.9,0.7c0.2,0.4,0.3,0.8,0.3,1.3s0,1-0.1,1.5    c0,0.5-0.1,1.1-0.2,1.6c-0.1,0.6-0.1,1,0,1.3c0,0.1-0.1,1.6-0.3,4.4c-0.2,2.3-0.1,3.4,0.1,3.4c0.1,0,0.3-0.2,0.4-0.6    c0.3-0.5,0.9-1.3,1.6-2.5c0.8-1.2,1.4-2.1,1.8-2.7c0.4-0.6,0.9-1.4,1.5-2.4c0.6-1,1.1-1.9,1.6-2.7c0.5-0.8,0.9-1.7,1.3-2.5    c0.2-0.5,0.5-0.9,0.8-1.1c0.3-0.2,0.6-0.3,0.8-0.3C171.4,20.1,171.7,20.2,172.1,20.3z"></path>		<path class="st2" d="M204.4,20.9c1.1,0,1.9,0,2.6,0.1c0.7,0.1,1.3,0.2,1.7,0.4c0.5,0.2,0.7,0.5,0.8,0.8c0,0.4-0.1,0.8-0.5,1.4    c-0.4,0.6-1,1.3-1.8,2.2c-0.3,0-0.7,0-1.1,0c-0.4,0-0.7,0-0.9,0s-0.4,0-0.7,0c-0.2,0-0.5,0-0.6,0.1c-0.2,0-0.3,0.1-0.4,0.2    c-0.2,0.2-0.4,0.4-0.6,0.7c-0.1,0.3-0.3,0.9-0.4,1.7c-0.1,0.3-0.3,1.3-0.7,2.9c-0.4,1.7-0.8,3.4-1.3,5.2c-0.5,1.8-1,3.6-1.6,5.4    c-0.6,1.8-1.1,3.2-1.7,4.2c-0.6,1-1.1,1.3-1.6,0.9c-0.2-0.1-0.5-0.2-0.7-0.4c-0.3-0.2-0.5-0.3-0.6-0.4c-0.1-0.1-0.3-0.3-0.6-0.6    c-0.3-0.3-0.5-0.5-0.5-0.5c-0.1-0.2-0.2-0.4-0.3-0.8c0-0.3,0-0.6,0-0.8c0.4-1.6,1.1-4.1,2-7.3c0.2-0.6,0.5-1.7,0.8-3.1    c0.3-1.4,0.6-2.5,0.9-3.3c0.6-2.4,1-3.6,1-3.8c-0.1,0-0.2,0.1-0.4,0.1c-0.2,0-0.4,0.1-0.4,0.1c-0.1,0-0.2,0-0.5,0    c-0.6,0.2-1.6,0.4-3,0.6c-0.2-0.6-0.3-1.5-0.2-2.7c0.1-1.1,0.3-1.9,0.6-2.4c1-0.2,2.2-0.4,3.6-0.6c1.3-0.1,2.4-0.2,3.4-0.3    C201.6,21,202.8,21,204.4,20.9z"></path>		<path class="st2" d="M233.3,42.6c0.3,0.3,0.8,0.8,1.4,1.5c0.6,0.7,0.9,1.1,1.1,1.3c0.2,0.2,0.3,0.3,0.4,0.4    c0.1,0.1,0.1,0.2,0.1,0.4c0,0.2-0.1,0.4-0.2,0.6c-1,0.6-2.1,0.8-3.2,0.6c-1.1-0.2-2.1-0.7-3.1-1.4c-0.9-0.7-1.7-1.5-2.3-2.5    c-0.1-0.1-0.3-0.3-0.5-0.6c-0.2-0.3-0.4-0.5-0.5-0.6c-0.2,0.4-0.4,1.2-0.7,2.3c-0.3,1.1-0.5,1.9-0.8,2.4c-0.2,0.6-0.6,0.7-1.1,0.3    c-0.9-0.6-1.7-1.3-2.4-2.1c-0.2-0.2-0.3-0.4-0.3-0.6c0-0.2,0-0.4,0.1-0.7c1.7-7,3.6-14.3,5.7-21.8c0-0.3,0.1-0.5,0.1-0.7    c0.1-0.2,0.2-0.3,0.3-0.4c0.2-0.1,0.3-0.1,0.5-0.2c0.2,0,0.3,0,0.6,0c0.2,0,0.4,0.1,0.6,0.1c0.2,0,0.4,0.1,0.6,0.2    c0.2,0.1,0.4,0.1,0.5,0.2c0.1,0,0.3-0.1,0.7-0.2c0.4-0.1,0.7-0.2,0.8-0.2c1.3-0.1,2.5-0.1,3.5,0.2c1,0.3,1.8,0.7,2.4,1.3    c0.6,0.6,1,1.2,1.4,2c0.3,0.8,0.5,1.6,0.5,2.5c0,0.9-0.1,1.8-0.4,2.8c-0.2,1-0.6,1.9-1.1,2.7c-0.5,0.9-1,1.7-1.7,2.4    c-0.7,0.7-1.4,1.4-2.2,1.8c-0.4,0.3-0.8,0.5-1.2,0.8c-0.4,0.2-0.7,0.4-0.9,0.5s-0.4,0.2-0.6,0.4c-0.2,0.1-0.3,0.2-0.4,0.3    c0,0-0.1,0.1-0.1,0.3c0,0.1,0,0.2,0.1,0.3c0.1,0.1,0.2,0.2,0.3,0.5c0.1,0.2,0.3,0.4,0.5,0.6c0.2,0.2,0.4,0.5,0.7,0.9    C232.7,41.7,233,42.2,233.3,42.6z M233.5,26.5c-0.2,0-0.4,0-0.6,0c-1,0-1.6,0.1-1.7,0.2c-0.2,0.1-0.4,0.5-0.5,1.1    c-0.2,0.6-0.3,1.2-0.5,1.6c-0.1,0.4-0.3,1.1-0.5,2c-0.2,0.9-0.3,1.5-0.4,1.9c0.6-0.3,1.1-0.7,1.5-0.9c0.4-0.3,0.9-0.6,1.4-1.1    c0.5-0.5,1-0.9,1.3-1.3c0.3-0.4,0.6-0.9,0.8-1.5c0.2-0.6,0.3-1.2,0.3-1.7C234.5,26.5,234.1,26.5,233.5,26.5z"></path>	</g></g><g>	<g>		<path class="st3" d="M38.8,22.3c0.1,0.2,0,0.6-0.2,1.2c-0.3,0.6-0.6,1.4-0.9,2.5c-0.3,1.1-0.6,1.9-0.7,2.3c-0.5,2-0.8,3.6-0.9,5    c-0.1,0.5-0.2,0.8-0.6,0.9c-0.3,0.1-0.8-0.1-1.4-0.6c-1-0.7-1.7-1.8-2-3.1c-0.3-1.3-0.3-2.5,0.1-3.7c-1.7,1-3.1,2.3-4.4,4    c-1.3,1.7-2.2,3.6-2.9,5.6c-0.3,0.8-0.6,1.6-0.7,2.4c-0.1,0.8-0.1,1.5,0.1,2c0.1,0.6,0.4,1,0.7,1.4c0.3,0.4,0.8,0.5,1.2,0.6    c0.5,0,1-0.1,1.7-0.5c0.6-0.4,1.3-1,2-1.7c0.4-0.4,0.4-0.6-0.1-0.5c-0.2,0-0.6,0.1-1.2,0.2c-0.6,0.2-1,0.2-1.1,0.2    c-0.7,0.2-1.1,0.3-1.2,0.3c-0.2,0-0.4,0-0.5-0.1c-0.1-0.1-0.2-0.4-0.2-0.8c-0.1-0.9,0.1-2,0.4-3.1c0-0.9,0.8-1.4,2.3-1.5    c1-0.3,2-0.4,2.9-0.4c0.9,0,1.8,0.3,2.6,0.8c0.8,0.5,1.3,1.2,1.7,2.1c0.2,0.6,0.3,1.1,0.3,1.4c0,0.3-0.1,0.7-0.4,1.1    c-0.6,1.1-1.2,2-2,2.9c-0.8,0.9-1.6,1.6-2.5,2.1c-0.9,0.6-1.8,1-2.8,1.2c-1,0.3-1.9,0.4-2.8,0.3c-0.9,0-1.7-0.3-2.5-0.7    c-0.8-0.4-1.4-1-1.9-1.8c-0.5-0.7-0.9-1.7-1.1-3c-0.2-1.2-0.2-2.6,0-4.2c0.4-2.2,1.1-4.4,2.2-6.6s2.5-4.2,4.1-5.9    c1.6-1.7,3.5-2.9,5.5-3.5s4.2-0.3,6.4,0.7c0.2,0.1,0.4,0.2,0.4,0.2C38.8,22.1,38.8,22.2,38.8,22.3z"></path>		<path class="st3" d="M53,21.6c1.5,1.1,2.3,2.9,2.5,5.2c0.2,2.3-0.1,4.7-0.9,7.2c-0.8,2.4-1.8,4.8-3.1,7c-1.3,2.2-2.7,3.9-4.1,4.9    c-1.6,1-3,1.3-4.3,1.1c-1.3-0.2-2.4-0.9-3.2-1.8c-0.9-1-1.5-2.2-1.9-3.7c-0.4-1.5-0.4-3-0.2-4.5c0.7-5,2.5-9.3,5.4-12.8    c1.3-1.8,2.9-2.9,4.6-3.5C49.6,20.2,51.3,20.5,53,21.6z M43.8,42c0.2,0,0.4,0,0.6,0c0.2,0,0.5-0.1,0.8-0.3    c0.4-0.2,0.7-0.6,1.1-1.1c0.4-0.5,1-1.5,1.6-2.9c0.6-1.4,1.2-2.9,1.8-4.5c0.5-1.6,0.8-3.1,0.9-4.3c0-1.3-0.4-2.1-1.2-2.3    c-0.7,0.2-1.4,0.7-2.3,1.7c-0.9,1-1.6,2.1-2.3,3.5c-0.7,1.3-1.3,2.7-1.7,4.1c-0.5,1.4-0.6,2.7-0.5,3.8S43,41.6,43.8,42z"></path>		<path class="st3" d="M70.8,21.6c1.5,1.1,2.3,2.9,2.5,5.2c0.2,2.3-0.1,4.7-0.9,7.2c-0.8,2.4-1.8,4.8-3.1,7    c-1.3,2.2-2.7,3.9-4.1,4.9c-1.6,1-3,1.3-4.3,1.1c-1.3-0.2-2.4-0.9-3.2-1.8c-0.9-1-1.5-2.2-1.9-3.7c-0.4-1.5-0.4-3-0.2-4.5    c0.7-5,2.5-9.3,5.4-12.8c1.3-1.8,2.9-2.9,4.6-3.5C67.5,20.2,69.2,20.5,70.8,21.6z M61.7,42c0.2,0,0.4,0,0.6,0    c0.2,0,0.5-0.1,0.8-0.3c0.4-0.2,0.7-0.6,1.1-1.1c0.4-0.5,1-1.5,1.6-2.9c0.6-1.4,1.2-2.9,1.8-4.5c0.5-1.6,0.8-3.1,0.9-4.3    c0-1.3-0.4-2.1-1.2-2.3c-0.7,0.2-1.4,0.7-2.3,1.7c-0.9,1-1.6,2.1-2.3,3.5c-0.7,1.3-1.3,2.7-1.7,4.1c-0.5,1.4-0.6,2.7-0.5,3.8    C60.5,40.8,60.9,41.6,61.7,42z"></path>		<path class="st3" d="M135.4,22.8c1.5,1.1,2.3,2.9,2.5,5.2c0.2,2.3-0.1,4.7-0.9,7.2c-0.8,2.4-1.8,4.8-3.1,7    c-1.3,2.2-2.7,3.9-4.1,4.9c-1.6,1-3,1.3-4.3,1.1c-1.3-0.2-2.4-0.9-3.2-1.8c-0.9-1-1.5-2.2-1.9-3.7s-0.4-3-0.2-4.5    c0.7-5,2.5-9.3,5.4-12.8c1.3-1.8,2.9-2.9,4.6-3.5C132.1,21.3,133.8,21.7,135.4,22.8z M126.3,43.2c0.2,0,0.4,0,0.6,0    c0.2,0,0.5-0.1,0.8-0.3c0.4-0.2,0.7-0.6,1.1-1.1c0.4-0.5,1-1.5,1.6-2.9c0.6-1.4,1.2-2.9,1.8-4.5c0.5-1.6,0.8-3.1,0.9-4.3    c0-1.3-0.4-2.1-1.2-2.3c-0.7,0.2-1.4,0.7-2.3,1.7c-0.9,1-1.6,2.1-2.3,3.5c-0.7,1.3-1.3,2.7-1.7,4.1c-0.5,1.4-0.6,2.7-0.5,3.8    S125.5,42.8,126.3,43.2z M168.8,43.5C168.8,43.5,168.8,43.5,168.8,43.5C168.9,43.5,168.8,43.5,168.8,43.5z M168.9,43.3    C168.9,43.3,168.9,43.3,168.9,43.3C168.9,43.4,168.9,43.4,168.9,43.3L168.9,43.3z"></path>		<path class="st3" d="M89.3,22.7c0.4,0.2,0.6,0.4,0.8,0.6c0.1,0.2,0.1,0.5,0,0.8c-0.2,0.3-0.4,0.8-0.7,1.4    c-0.3,0.7-0.6,1.2-0.8,1.6c-0.2,0.4-0.4,0.9-0.7,1.4c-0.3,0.6-0.5,1.1-0.7,1.6c-0.1,0.2-0.2,0.7-0.3,1.3c-0.1,0.7-0.3,1.2-0.5,1.6    c-0.2,0.4-0.5,0.6-0.8,0.6c-1.1-0.4-1.9-1.2-2.3-2.5c-0.5-1.2-0.6-2.4-0.2-3.6c-1.5,0.8-2.3,1.7-2.6,2.8c0.2,0.6,0.4,1.2,0.8,1.8    c0.3,0.7,0.7,1.3,1.1,1.8c0.4,0.6,0.7,1.2,1.1,1.8c0.4,0.6,0.7,1.2,1,1.9c0.3,0.6,0.5,1.3,0.7,1.9c0.2,0.6,0.3,1.3,0.2,2    c0,0.7-0.2,1.4-0.5,2.2c-0.5,1.1-1.2,2-2.2,2.6c-1,0.6-2,0.9-3.2,0.9c-1.2,0-2.2-0.4-3.2-1c-0.3-0.3-0.7-0.6-1.2-1.1    c-0.5-0.5-0.9-1-1.4-1.6c-0.5-0.6-0.8-1.2-1.1-1.8c-0.3-0.6-0.3-1.2-0.2-1.7c0.1-0.5,0.5-0.9,1.1-1.2c0.4-0.2,0.8-0.4,1.2-0.4    c0.4,0,0.8,0.1,1.2,0.3c0.3,0.2,0.7,0.6,1.1,1.2c0.4,0.5,0.9,1,1.3,1.4c0.4,0.4,0.9,0.7,1.3,0.8c0.4-0.3,0.5-0.7,0.3-1.3    c-0.2-0.6-0.5-1.2-1-2c-0.5-0.7-1.1-1.6-1.7-2.5c-0.6-0.9-1.1-1.9-1.6-2.9c-0.5-1-0.7-2-0.8-3.1c0-1.1,0.2-2.1,0.8-3.1    c0.6-1.3,1.5-2.4,2.5-3.4c1.1-1,2.2-1.7,3.5-2.2c1.2-0.5,2.6-0.6,3.9-0.5C86.8,21.4,88.1,21.9,89.3,22.7z"></path>		<path class="st3" d="M107.8,24c0.2,0.2,0.4,0.5,0.5,0.7c0.1,0.3,0.2,0.5,0.3,0.8c0,0.3,0,0.5-0.2,0.7c-0.2,0.2-0.5,0.3-0.9,0.2    c-3.5,0-6.5,0.2-9,0.6c0,0.2-0.2,0.8-0.4,1.8c-0.2,1-0.4,1.8-0.6,2.3c1.5-0.3,2.9-0.2,4.3,0.4c1.4,0.5,2.3,1.4,2.8,2.7    c0.1,0.3,0.1,0.6,0,0.8c-0.1,0.2-0.3,0.3-0.6,0.3c-2.8,0-5.4,0.2-7.9,0.8c-0.2,0.8-0.4,1.6-0.7,2.4c-0.5,1.4-0.7,2.2-0.8,2.5    c-0.1,0.5-0.1,0.7-0.1,0.8c0.1,0.1,0.3,0,0.8,0c3.1-0.3,5.8-0.8,8.2-1.5c0.2-0.1,0.4-0.1,0.5-0.1c0.1,0,0.2,0.1,0.4,0.3    c0.6,0.7,0.4,1.7-0.5,2.9c-0.4,0.6-0.9,1.1-1.6,1.5c-0.6,0.4-1.4,0.7-2.3,1c-0.9,0.2-1.6,0.4-2.2,0.5c-0.6,0.1-1.4,0.2-2.4,0.3    c-0.1,0-0.3,0-0.8,0.1c-0.5,0.1-0.8,0.1-1,0.1c-0.2,0-0.4,0-0.9,0s-0.7,0-1,0c-0.2,0-0.5-0.1-0.8-0.2c-0.3-0.1-0.6-0.2-0.8-0.4    c-1.4-1-1.9-2.2-1.5-3.5c3.1-11.3,4.9-17.7,5.2-19.1c0.2-0.9,0.4-1.4,0.6-1.5c0.2-0.2,0.8-0.3,1.7-0.3c0.4,0,1.1-0.1,2-0.1    c1-0.1,1.7-0.1,2.2-0.2c0.5,0,1.2,0,2,0c0.8,0,1.5,0.1,2,0.3c0.5,0.2,1.1,0.4,1.7,0.8C106.8,23.1,107.3,23.5,107.8,24z"></path>		<path class="st3" d="M193.2,25.2c0.2,0.2,0.4,0.5,0.5,0.7c0.1,0.3,0.2,0.5,0.3,0.8c0,0.3,0,0.5-0.2,0.7c-0.2,0.2-0.5,0.3-0.9,0.2    c-3.5,0-6.5,0.2-9,0.6c0,0.2-0.2,0.8-0.4,1.8c-0.2,1-0.4,1.8-0.6,2.3c1.5-0.3,2.9-0.2,4.3,0.4c1.4,0.5,2.3,1.4,2.8,2.7    c0.1,0.3,0.1,0.6,0,0.8c-0.1,0.2-0.3,0.3-0.6,0.3c-2.8,0-5.4,0.2-7.9,0.8c-0.2,0.8-0.4,1.6-0.7,2.4c-0.5,1.4-0.7,2.2-0.8,2.5    c-0.1,0.5-0.1,0.7-0.1,0.8c0.1,0.1,0.3,0,0.8,0c3.1-0.3,5.8-0.8,8.2-1.5c0.2-0.1,0.4-0.1,0.5-0.1c0.1,0,0.2,0.1,0.4,0.3    c0.6,0.7,0.4,1.7-0.5,2.9c-0.4,0.6-0.9,1.1-1.6,1.5c-0.6,0.4-1.4,0.7-2.3,1c-0.9,0.2-1.6,0.4-2.2,0.5s-1.4,0.2-2.4,0.3    c-0.1,0-0.3,0-0.8,0.1c-0.5,0.1-0.8,0.1-1,0.1c-0.2,0-0.4,0-0.9,0c-0.4,0-0.7,0-1,0c-0.2,0-0.5-0.1-0.8-0.2    c-0.3-0.1-0.6-0.2-0.8-0.4c-1.4-1-1.9-2.2-1.5-3.5c3.1-11.3,4.9-17.7,5.2-19.1c0.2-0.9,0.4-1.4,0.6-1.5c0.2-0.2,0.8-0.3,1.7-0.3    c0.4,0,1.1-0.1,2-0.1c1-0.1,1.7-0.1,2.2-0.2c0.5,0,1.2,0,2,0c0.8,0,1.5,0.1,2,0.3c0.5,0.2,1.1,0.4,1.7,0.8    C192.1,24.2,192.7,24.7,193.2,25.2z"></path>		<path class="st3" d="M225.5,25.7c0.2,0.2,0.4,0.5,0.5,0.7c0.1,0.3,0.2,0.5,0.3,0.8c0,0.3,0,0.5-0.2,0.7c-0.2,0.2-0.5,0.3-0.9,0.2    c-3.5,0-6.5,0.2-9,0.6c0,0.2-0.2,0.8-0.4,1.8s-0.4,1.8-0.6,2.3c1.5-0.3,2.9-0.2,4.3,0.4c1.4,0.5,2.3,1.4,2.8,2.7    c0.1,0.3,0.1,0.6,0,0.8c-0.1,0.2-0.3,0.3-0.6,0.3c-2.8,0-5.4,0.2-7.9,0.8c-0.2,0.8-0.4,1.6-0.7,2.4c-0.5,1.4-0.7,2.2-0.8,2.5    c-0.1,0.5-0.1,0.7-0.1,0.8c0.1,0.1,0.3,0,0.8,0c3.1-0.3,5.8-0.8,8.2-1.5c0.2-0.1,0.4-0.1,0.5-0.1c0.1,0,0.2,0.1,0.4,0.3    c0.6,0.7,0.4,1.7-0.5,2.9c-0.4,0.6-0.9,1.1-1.6,1.5c-0.6,0.4-1.4,0.7-2.3,1c-0.9,0.2-1.6,0.4-2.2,0.5s-1.4,0.2-2.4,0.3    c-0.1,0-0.3,0-0.8,0.1c-0.5,0.1-0.8,0.1-1,0.1c-0.2,0-0.4,0-0.9,0c-0.4,0-0.7,0-1,0c-0.2,0-0.5-0.1-0.8-0.2    c-0.3-0.1-0.6-0.2-0.8-0.4c-1.4-1-1.9-2.2-1.5-3.5c3.1-11.3,4.9-17.7,5.2-19.1c0.2-0.9,0.4-1.4,0.6-1.5c0.2-0.2,0.8-0.3,1.7-0.3    c0.4,0,1.1-0.1,2-0.1c1-0.1,1.7-0.1,2.2-0.2c0.5,0,1.2,0,2,0c0.8,0,1.5,0.1,2,0.3c0.5,0.2,1.1,0.4,1.7,0.8    C224.5,24.7,225,25.2,225.5,25.7z"></path>		<path class="st3" d="M120.4,32.7c0.3,0.4,0.3,1.1,0,2.1c-0.3,1-0.7,1.7-1,2.2c-0.1,0.2-0.2,0.3-0.4,0.3s-0.5,0.1-0.7,0.1    c-0.3,0-0.6,0-0.8,0c-0.2,0-0.6,0-0.9,0c-0.4,0-0.6,0-0.8,0c-0.9,0-2.2,0-3.8-0.1c-1.6-0.1-2.7-0.1-3.1-0.2    c-0.1,0-0.3-0.1-0.5-0.1c-0.2,0-0.4-0.1-0.5-0.1c-0.2,0-0.5,0-1-0.1c-0.5,0-0.9-0.1-1.1-0.2c0-0.1-0.1-0.1-0.2-0.2    s-0.1-0.1-0.2-0.2c0-0.8,0.1-1.5,0.3-2.2c0.2-0.7,0.5-1.2,0.9-1.6c0.2,0,0.5-0.1,0.7-0.1c0.3,0,0.5,0,0.9,0s0.5,0,0.7,0    c1.2,0,2.4,0.1,3.7,0.1s2.7,0.1,4.3,0.1C118.3,32.6,119.6,32.7,120.4,32.7z"></path>		<path class="st3" d="M153.2,33.2c0.3,0.4,0.3,1.1,0,2.1c-0.3,1-0.7,1.7-1,2.2c-0.1,0.2-0.2,0.3-0.4,0.3c-0.2,0.1-0.5,0.1-0.7,0.1    c-0.3,0-0.6,0-0.8,0c-0.2,0-0.6,0-0.9,0c-0.4,0-0.6,0-0.8,0c-0.9,0-2.2,0-3.8-0.1c-1.6-0.1-2.7-0.1-3.1-0.2    c-0.1,0-0.3-0.1-0.5-0.1c-0.2,0-0.4-0.1-0.5-0.1c-0.2,0-0.5,0-1-0.1c-0.5,0-0.9-0.1-1.1-0.2c0-0.1-0.1-0.1-0.2-0.2    s-0.1-0.1-0.2-0.2c0-0.8,0.1-1.5,0.3-2.2c0.2-0.7,0.5-1.2,0.9-1.6c0.2,0,0.5-0.1,0.7-0.1c0.3,0,0.5,0,0.9,0c0.3,0,0.5,0,0.7,0    c1.2,0,2.4,0.1,3.7,0.1c1.3,0,2.7,0.1,4.3,0.1C151.1,33.2,152.3,33.2,153.2,33.2z"></path>		<path class="st3" d="M173.8,22.2c0.6,0.3,1.2,0.6,1.7,1.1c0.5,0.5,0.9,0.9,1.1,1.4c-1.2,4.4-2,7.5-2.4,9.3    c-0.3,1.4-0.7,2.8-1.1,4.2c-0.4,1.5-0.9,3.1-1.5,5c-0.6,1.9-1,3.3-1.2,4.2c-0.2,0.9-0.4,1.4-0.6,1.5c-0.2,0.1-0.7-0.2-1.3-0.9    c-0.6-0.4-1-0.8-1.3-1.1c-0.3-0.3-0.5-0.5-0.7-0.7c-0.2-0.2-0.2-0.4-0.2-0.7s0.1-0.5,0.1-0.7c0-0.2,0.1-0.6,0.3-1.1s0.2-1,0.3-1.5    c0.4-1.3,0.5-1.9,0.4-1.9c-0.1,0-0.6,0.7-1.5,2.2c-0.6,1.1-1.1,1.7-1.3,2c-0.5,1-1,1.7-1.6,2.1c-0.6,0.4-1.1,0.4-1.7,0.2    c-0.6-0.2-1.3-0.8-2-1.6c-0.1-0.4-0.2-1.2-0.2-2.3c-0.1-1.1-0.2-1.8-0.3-2.2c-0.7,2.7-1.3,4.8-1.7,6.4c-0.1,0.4-0.3,0.7-0.6,0.7    c-0.3,0.1-0.5,0-0.8-0.2c-0.5-0.2-1.1-0.6-1.6-1c-0.6-0.4-1-0.9-1.3-1.3c-0.3-0.5-0.4-0.8-0.4-1c0-0.2,0.1-0.6,0.2-1    c0.5-2,0.8-3.4,1-4.1c0.3-1.1,0.7-2.6,1.2-4.5c0.5-1.9,1-3.7,1.5-5.3c0.5-1.6,1-3.1,1.6-4.4c0.4-1.1,1-1.8,1.8-2.3    c0.8-0.5,1.7-0.6,2.7-0.3c0.4,0.1,0.7,0.4,0.9,0.7c0.2,0.4,0.3,0.8,0.3,1.3c0,0.5,0,1-0.1,1.5c0,0.5-0.1,1.1-0.2,1.6    c-0.1,0.6-0.1,1,0,1.3c0,0.1-0.1,1.6-0.3,4.4c-0.2,2.3-0.1,3.4,0.1,3.4c0.1,0,0.3-0.2,0.4-0.6c0.3-0.5,0.9-1.3,1.6-2.5    s1.4-2.1,1.8-2.7c0.4-0.6,0.9-1.4,1.5-2.4c0.6-1,1.1-1.9,1.6-2.7c0.5-0.8,0.9-1.7,1.3-2.5c0.2-0.5,0.5-0.9,0.8-1.1    c0.3-0.2,0.6-0.3,0.8-0.3C173.1,22,173.4,22.1,173.8,22.2z"></path>		<path class="st3" d="M206,22.8c1.1,0,1.9,0,2.6,0.1c0.7,0.1,1.3,0.2,1.7,0.4c0.5,0.2,0.7,0.5,0.8,0.8c0,0.4-0.1,0.8-0.5,1.4    c-0.4,0.6-1,1.3-1.8,2.2c-0.3,0-0.7,0-1.1,0c-0.4,0-0.7,0-0.9,0s-0.4,0-0.7,0c-0.2,0-0.5,0-0.6,0.1c-0.2,0-0.3,0.1-0.4,0.2    c-0.2,0.2-0.4,0.4-0.6,0.7c-0.1,0.3-0.3,0.9-0.4,1.7c-0.1,0.3-0.3,1.3-0.7,2.9c-0.4,1.7-0.8,3.4-1.3,5.2c-0.5,1.8-1,3.6-1.6,5.4    c-0.6,1.8-1.1,3.2-1.7,4.2s-1.1,1.3-1.6,0.9c-0.2-0.1-0.5-0.2-0.7-0.4c-0.3-0.2-0.5-0.3-0.6-0.4c-0.1-0.1-0.3-0.3-0.6-0.6    c-0.3-0.3-0.5-0.5-0.5-0.5c-0.1-0.2-0.2-0.4-0.3-0.8c0-0.3,0-0.6,0-0.8c0.4-1.6,1.1-4.1,2-7.3c0.2-0.6,0.5-1.7,0.8-3.1    c0.3-1.4,0.6-2.5,0.9-3.3c0.6-2.4,1-3.6,1-3.8c-0.1,0-0.2,0.1-0.4,0.1c-0.2,0-0.4,0.1-0.4,0.1c-0.1,0-0.2,0-0.5,0    c-0.6,0.2-1.6,0.4-3,0.6c-0.2-0.6-0.3-1.5-0.2-2.7c0.1-1.1,0.3-1.9,0.6-2.4c1-0.2,2.2-0.4,3.6-0.6c1.3-0.1,2.4-0.2,3.4-0.3    C203.3,22.9,204.5,22.8,206,22.8z"></path>		<path class="st3" d="M234.9,44.5c0.3,0.3,0.8,0.8,1.4,1.5c0.6,0.7,0.9,1.1,1.1,1.3c0.2,0.2,0.3,0.3,0.4,0.4    c0.1,0.1,0.1,0.2,0.1,0.4c0,0.2-0.1,0.4-0.2,0.6c-1,0.6-2.1,0.8-3.2,0.6c-1.1-0.2-2.1-0.7-3.1-1.4c-0.9-0.7-1.7-1.5-2.3-2.5    c-0.1-0.1-0.3-0.3-0.5-0.6c-0.2-0.3-0.4-0.5-0.5-0.6c-0.2,0.4-0.4,1.2-0.7,2.3c-0.3,1.1-0.5,1.9-0.8,2.4c-0.2,0.6-0.6,0.7-1.1,0.3    c-0.9-0.6-1.7-1.3-2.4-2.1c-0.2-0.2-0.3-0.4-0.3-0.6c0-0.2,0-0.4,0.1-0.7c1.7-7,3.6-14.3,5.7-21.8c0-0.3,0.1-0.5,0.1-0.7    c0.1-0.2,0.2-0.3,0.3-0.4c0.2-0.1,0.3-0.1,0.5-0.2c0.2,0,0.3,0,0.6,0c0.2,0,0.4,0.1,0.6,0.1c0.2,0,0.4,0.1,0.6,0.2    c0.2,0.1,0.4,0.1,0.5,0.2c0.1,0,0.3-0.1,0.7-0.2c0.4-0.1,0.7-0.2,0.8-0.2c1.3-0.1,2.5-0.1,3.5,0.2c1,0.3,1.8,0.7,2.4,1.3    c0.6,0.6,1,1.2,1.4,2c0.3,0.8,0.5,1.6,0.5,2.5c0,0.9-0.1,1.8-0.4,2.8c-0.2,1-0.6,1.9-1.1,2.7c-0.5,0.9-1,1.7-1.7,2.4    c-0.7,0.7-1.4,1.4-2.2,1.8c-0.4,0.3-0.8,0.5-1.2,0.8c-0.4,0.2-0.7,0.4-0.9,0.5c-0.2,0.1-0.4,0.2-0.6,0.4c-0.2,0.1-0.3,0.2-0.4,0.3    c0,0-0.1,0.1-0.1,0.3c0,0.1,0,0.2,0.1,0.3c0.1,0.1,0.2,0.2,0.3,0.5c0.1,0.2,0.3,0.4,0.5,0.6c0.2,0.2,0.4,0.5,0.7,0.9    C234.4,43.6,234.7,44,234.9,44.5z M235.2,28.3c-0.2,0-0.4,0-0.6,0c-1,0-1.6,0.1-1.7,0.2c-0.2,0.1-0.4,0.5-0.5,1.1    c-0.2,0.6-0.3,1.2-0.5,1.6c-0.1,0.4-0.3,1.1-0.5,2c-0.2,0.9-0.3,1.5-0.4,1.9c0.6-0.3,1.1-0.7,1.5-0.9c0.4-0.3,0.9-0.6,1.4-1.1    c0.5-0.5,1-0.9,1.3-1.3c0.3-0.4,0.6-0.9,0.8-1.5c0.2-0.6,0.3-1.2,0.3-1.7C236.2,28.4,235.8,28.3,235.2,28.3z"></path>	</g></g><g>	<g>		<path class="st4" d="M40.5,24.2c0.1,0.2,0,0.6-0.2,1.2c-0.3,0.6-0.6,1.4-0.9,2.5c-0.3,1.1-0.6,1.9-0.7,2.3c-0.5,2-0.8,3.6-0.9,5    c-0.1,0.5-0.2,0.8-0.6,0.9c-0.3,0.1-0.8-0.1-1.4-0.6c-1-0.7-1.7-1.8-2-3.1c-0.3-1.3-0.3-2.5,0.1-3.7c-1.7,1-3.1,2.3-4.4,4    c-1.3,1.7-2.2,3.6-2.9,5.6c-0.3,0.8-0.6,1.6-0.7,2.4c-0.1,0.8-0.1,1.5,0.1,2c0.1,0.6,0.4,1,0.7,1.4c0.3,0.4,0.8,0.5,1.2,0.6    c0.5,0,1-0.1,1.7-0.5c0.6-0.4,1.3-1,2-1.7c0.4-0.4,0.4-0.6-0.1-0.5c-0.2,0-0.6,0.1-1.2,0.2c-0.6,0.2-1,0.2-1.1,0.2    c-0.7,0.2-1.1,0.3-1.2,0.3c-0.2,0-0.4,0-0.5-0.1c-0.1-0.1-0.2-0.4-0.2-0.8c-0.1-0.9,0.1-2,0.4-3.1c0-0.9,0.8-1.4,2.3-1.5    c1-0.3,2-0.4,2.9-0.4c0.9,0,1.8,0.3,2.6,0.8c0.8,0.5,1.3,1.2,1.7,2.1c0.2,0.6,0.3,1.1,0.3,1.4c0,0.3-0.1,0.7-0.4,1.1    c-0.6,1.1-1.2,2-2,2.9c-0.8,0.9-1.6,1.6-2.5,2.1c-0.9,0.6-1.8,1-2.8,1.2c-1,0.3-1.9,0.4-2.8,0.3c-0.9,0-1.7-0.3-2.5-0.7    c-0.8-0.4-1.4-1-1.9-1.8c-0.5-0.7-0.9-1.7-1.1-3c-0.2-1.2-0.2-2.6,0-4.2c0.4-2.2,1.1-4.4,2.2-6.6c1.1-2.2,2.5-4.2,4.1-5.9    c1.6-1.7,3.5-2.9,5.5-3.5c2-0.6,4.2-0.3,6.4,0.7c0.2,0.1,0.4,0.2,0.4,0.2C40.5,24,40.5,24.1,40.5,24.2z"></path>		<path class="st4" d="M54.7,23.6c1.5,1.1,2.3,2.9,2.5,5.2c0.2,2.3-0.1,4.7-0.9,7.2c-0.8,2.4-1.8,4.8-3.1,7    c-1.3,2.2-2.7,3.9-4.1,4.9c-1.6,1-3,1.3-4.3,1.1c-1.3-0.2-2.4-0.9-3.2-1.8c-0.9-1-1.5-2.2-1.9-3.7c-0.4-1.5-0.4-3-0.2-4.5    c0.7-5,2.5-9.3,5.4-12.8c1.3-1.8,2.9-2.9,4.6-3.5C51.3,22.1,53,22.4,54.7,23.6z M45.5,43.9c0.2,0,0.4,0,0.6,0    c0.2,0,0.5-0.1,0.8-0.3c0.4-0.2,0.7-0.6,1.1-1.1c0.4-0.5,1-1.5,1.6-2.9c0.6-1.4,1.2-2.9,1.8-4.5c0.5-1.6,0.8-3.1,0.9-4.3    c0-1.3-0.4-2.1-1.2-2.3c-0.7,0.2-1.4,0.7-2.3,1.7c-0.9,1-1.6,2.1-2.3,3.5c-0.7,1.3-1.3,2.7-1.7,4.1c-0.5,1.4-0.6,2.7-0.5,3.8    C44.3,42.7,44.7,43.5,45.5,43.9z"></path>		<path class="st4" d="M72.5,23.6c1.5,1.1,2.3,2.9,2.5,5.2c0.2,2.3-0.1,4.7-0.9,7.2c-0.8,2.4-1.8,4.8-3.1,7    c-1.3,2.2-2.7,3.9-4.1,4.9c-1.6,1-3,1.3-4.3,1.1c-1.3-0.2-2.4-0.9-3.2-1.8c-0.9-1-1.5-2.2-1.9-3.7c-0.4-1.5-0.4-3-0.2-4.5    c0.7-5,2.5-9.3,5.4-12.8c1.3-1.8,2.9-2.9,4.6-3.5C69.1,22.1,70.9,22.4,72.5,23.6z M63.3,43.9c0.2,0,0.4,0,0.6,0    c0.2,0,0.5-0.1,0.8-0.3c0.4-0.2,0.7-0.6,1.1-1.1c0.4-0.5,1-1.5,1.6-2.9c0.6-1.4,1.2-2.9,1.8-4.5c0.5-1.6,0.8-3.1,0.9-4.3    c0-1.3-0.4-2.1-1.2-2.3c-0.7,0.2-1.4,0.7-2.3,1.7c-0.9,1-1.6,2.1-2.3,3.5c-0.7,1.3-1.3,2.7-1.7,4.1c-0.5,1.4-0.6,2.7-0.5,3.8    S62.6,43.5,63.3,43.9z"></path>		<path class="st4" d="M137.1,24.7c1.5,1.1,2.3,2.9,2.5,5.2c0.2,2.3-0.1,4.7-0.9,7.2c-0.8,2.4-1.8,4.8-3.1,7    c-1.3,2.2-2.7,3.9-4.1,4.9c-1.6,1-3,1.3-4.3,1.1c-1.3-0.2-2.4-0.9-3.2-1.8c-0.9-1-1.5-2.2-1.9-3.7s-0.4-3-0.2-4.5    c0.7-5,2.5-9.3,5.4-12.8c1.3-1.8,2.9-2.9,4.6-3.5C133.8,23.3,135.5,23.6,137.1,24.7z M128,45.1c0.2,0,0.4,0,0.6,0    c0.2,0,0.5-0.1,0.8-0.3c0.4-0.2,0.7-0.6,1.1-1.1c0.4-0.5,1-1.5,1.6-2.9c0.6-1.4,1.2-2.9,1.8-4.5c0.5-1.6,0.8-3.1,0.9-4.3    c0-1.3-0.4-2.1-1.2-2.3c-0.7,0.2-1.4,0.7-2.3,1.7c-0.9,1-1.6,2.1-2.3,3.5c-0.7,1.3-1.3,2.7-1.7,4.1c-0.5,1.4-0.6,2.7-0.5,3.8    S127.2,44.7,128,45.1z M170.5,45.4C170.5,45.4,170.5,45.4,170.5,45.4C170.5,45.4,170.5,45.4,170.5,45.4z M170.5,45.2    C170.5,45.2,170.5,45.3,170.5,45.2C170.5,45.3,170.6,45.3,170.5,45.2L170.5,45.2z"></path>		<path class="st4" d="M91,24.6c0.4,0.2,0.6,0.4,0.8,0.6c0.1,0.2,0.1,0.5,0,0.8c-0.2,0.3-0.4,0.8-0.7,1.4c-0.3,0.7-0.6,1.2-0.8,1.6    c-0.2,0.4-0.4,0.9-0.7,1.4c-0.3,0.6-0.5,1.1-0.7,1.6c-0.1,0.2-0.2,0.7-0.3,1.3c-0.1,0.7-0.3,1.2-0.5,1.6c-0.2,0.4-0.5,0.6-0.8,0.6    c-1.1-0.4-1.9-1.2-2.3-2.5c-0.5-1.2-0.6-2.4-0.2-3.6c-1.5,0.8-2.3,1.7-2.6,2.8c0.2,0.6,0.4,1.2,0.8,1.8c0.3,0.7,0.7,1.3,1.1,1.8    c0.4,0.6,0.7,1.2,1.1,1.8c0.4,0.6,0.7,1.2,1,1.9c0.3,0.6,0.5,1.3,0.7,1.9c0.2,0.6,0.3,1.3,0.2,2c0,0.7-0.2,1.4-0.5,2.2    c-0.5,1.1-1.2,2-2.2,2.6c-1,0.6-2,0.9-3.2,0.9s-2.2-0.4-3.2-1c-0.3-0.3-0.7-0.6-1.2-1.1c-0.5-0.5-0.9-1-1.4-1.6    c-0.5-0.6-0.8-1.2-1.1-1.8c-0.3-0.6-0.3-1.2-0.2-1.7c0.1-0.5,0.5-0.9,1.1-1.2c0.4-0.2,0.8-0.4,1.2-0.4c0.4,0,0.8,0.1,1.2,0.3    c0.3,0.2,0.7,0.6,1.1,1.2c0.4,0.5,0.9,1,1.3,1.4c0.4,0.4,0.9,0.7,1.3,0.8c0.4-0.3,0.5-0.7,0.3-1.3c-0.2-0.6-0.5-1.2-1-2    c-0.5-0.7-1.1-1.6-1.7-2.5c-0.6-0.9-1.1-1.9-1.6-2.9c-0.5-1-0.7-2-0.8-3.1c0-1.1,0.2-2.1,0.8-3.1c0.6-1.3,1.5-2.4,2.5-3.4    c1.1-1,2.2-1.7,3.5-2.2c1.2-0.5,2.6-0.6,3.9-0.5C88.5,23.3,89.8,23.8,91,24.6z"></path>		<path class="st4" d="M109.5,25.9c0.2,0.2,0.4,0.5,0.5,0.7c0.1,0.3,0.2,0.5,0.3,0.8c0,0.3,0,0.5-0.2,0.7c-0.2,0.2-0.5,0.3-0.9,0.2    c-3.5,0-6.5,0.2-9,0.6c0,0.2-0.2,0.8-0.4,1.8c-0.2,1-0.4,1.8-0.6,2.3c1.5-0.3,2.9-0.2,4.3,0.4c1.4,0.5,2.3,1.4,2.8,2.7    c0.1,0.3,0.1,0.6,0,0.8c-0.1,0.2-0.3,0.3-0.6,0.3c-2.8,0-5.4,0.2-7.9,0.8c-0.2,0.8-0.4,1.6-0.7,2.4c-0.5,1.4-0.7,2.2-0.8,2.5    c-0.1,0.5-0.1,0.7-0.1,0.8c0.1,0.1,0.3,0,0.8,0c3.1-0.3,5.8-0.8,8.2-1.5c0.2-0.1,0.4-0.1,0.5-0.1c0.1,0,0.2,0.1,0.4,0.3    c0.6,0.7,0.4,1.7-0.5,2.9c-0.4,0.6-0.9,1.1-1.6,1.5c-0.6,0.4-1.4,0.7-2.3,1c-0.9,0.2-1.6,0.4-2.2,0.5c-0.6,0.1-1.4,0.2-2.4,0.3    c-0.1,0-0.3,0-0.8,0.1c-0.5,0.1-0.8,0.1-1,0.1c-0.2,0-0.4,0-0.9,0c-0.4,0-0.7,0-1,0c-0.2,0-0.5-0.1-0.8-0.2    c-0.3-0.1-0.6-0.2-0.8-0.4c-1.4-1-1.9-2.2-1.5-3.5c3.1-11.3,4.9-17.7,5.2-19.1c0.2-0.9,0.4-1.4,0.6-1.5c0.2-0.2,0.8-0.3,1.7-0.3    c0.4,0,1.1-0.1,2-0.1c1-0.1,1.7-0.1,2.2-0.2c0.5,0,1.2,0,2,0c0.8,0,1.5,0.1,2,0.3c0.5,0.2,1.1,0.4,1.7,0.8    C108.5,25,109,25.4,109.5,25.9z"></path>		<path class="st4" d="M194.9,27.1c0.2,0.2,0.4,0.5,0.5,0.7c0.1,0.3,0.2,0.5,0.3,0.8c0,0.3,0,0.5-0.2,0.7c-0.2,0.2-0.5,0.3-0.9,0.2    c-3.5,0-6.5,0.2-9,0.6c0,0.2-0.2,0.8-0.4,1.8c-0.2,1-0.4,1.8-0.6,2.3c1.5-0.3,2.9-0.2,4.3,0.4c1.4,0.5,2.3,1.4,2.8,2.7    c0.1,0.3,0.1,0.6,0,0.8c-0.1,0.2-0.3,0.3-0.6,0.3c-2.8,0-5.4,0.2-7.9,0.8c-0.2,0.8-0.4,1.6-0.7,2.4c-0.5,1.4-0.7,2.2-0.8,2.5    c-0.1,0.5-0.1,0.7-0.1,0.8c0.1,0.1,0.3,0,0.8,0c3.1-0.3,5.8-0.8,8.2-1.5c0.2-0.1,0.4-0.1,0.5-0.1c0.1,0,0.2,0.1,0.4,0.3    c0.6,0.7,0.4,1.7-0.5,2.9c-0.4,0.6-0.9,1.1-1.6,1.5c-0.6,0.4-1.4,0.7-2.3,1c-0.9,0.2-1.6,0.4-2.2,0.5c-0.6,0.1-1.4,0.2-2.4,0.3    c-0.1,0-0.3,0-0.8,0.1c-0.5,0.1-0.8,0.1-1,0.1c-0.2,0-0.4,0-0.9,0c-0.4,0-0.7,0-1,0c-0.2,0-0.5-0.1-0.8-0.2    c-0.3-0.1-0.6-0.2-0.8-0.4c-1.4-1-1.9-2.2-1.5-3.5c3.1-11.3,4.9-17.7,5.2-19.1c0.2-0.9,0.4-1.4,0.6-1.5c0.2-0.2,0.8-0.3,1.7-0.3    c0.4,0,1.1-0.1,2-0.1c1-0.1,1.7-0.1,2.2-0.2c0.5,0,1.2,0,2,0c0.8,0,1.5,0.1,2,0.3c0.5,0.2,1.1,0.4,1.7,0.8    C193.8,26.2,194.4,26.6,194.9,27.1z"></path>		<path class="st4" d="M227.2,27.6c0.2,0.2,0.4,0.5,0.5,0.7c0.1,0.3,0.2,0.5,0.3,0.8c0,0.3,0,0.5-0.2,0.7c-0.2,0.2-0.5,0.3-0.9,0.2    c-3.5,0-6.5,0.2-9,0.6c0,0.2-0.2,0.8-0.4,1.8c-0.2,1-0.4,1.8-0.6,2.3c1.5-0.3,2.9-0.2,4.3,0.4c1.4,0.5,2.3,1.4,2.8,2.7    c0.1,0.3,0.1,0.6,0,0.8c-0.1,0.2-0.3,0.3-0.6,0.3c-2.8,0-5.4,0.2-7.9,0.8c-0.2,0.8-0.4,1.6-0.7,2.4c-0.5,1.4-0.7,2.2-0.8,2.5    c-0.1,0.5-0.1,0.7-0.1,0.8c0.1,0.1,0.3,0,0.8,0c3.1-0.3,5.8-0.8,8.2-1.5c0.2-0.1,0.4-0.1,0.5-0.1c0.1,0,0.2,0.1,0.4,0.3    c0.6,0.7,0.4,1.7-0.5,2.9c-0.4,0.6-0.9,1.1-1.6,1.5c-0.6,0.4-1.4,0.7-2.3,1c-0.9,0.2-1.6,0.4-2.2,0.5c-0.6,0.1-1.4,0.2-2.4,0.3    c-0.1,0-0.3,0-0.8,0.1c-0.5,0.1-0.8,0.1-1,0.1c-0.2,0-0.4,0-0.9,0c-0.4,0-0.7,0-1,0c-0.2,0-0.5-0.1-0.8-0.2    c-0.3-0.1-0.6-0.2-0.8-0.4c-1.4-1-1.9-2.2-1.5-3.5c3.1-11.3,4.9-17.7,5.2-19.1c0.2-0.9,0.4-1.4,0.6-1.5c0.2-0.2,0.8-0.3,1.7-0.3    c0.4,0,1.1-0.1,2-0.1c1-0.1,1.7-0.1,2.2-0.2c0.5,0,1.2,0,2,0c0.8,0,1.5,0.1,2,0.3c0.5,0.2,1.1,0.4,1.7,0.8    C226.2,26.6,226.7,27.1,227.2,27.6z"></path>		<path class="st4" d="M122.1,34.6c0.3,0.4,0.3,1.1,0,2.1c-0.3,1-0.7,1.7-1,2.2c-0.1,0.2-0.2,0.3-0.4,0.3c-0.2,0.1-0.5,0.1-0.7,0.1    c-0.3,0-0.6,0-0.8,0c-0.2,0-0.6,0-0.9,0c-0.4,0-0.6,0-0.8,0c-0.9,0-2.2,0-3.8-0.1c-1.6-0.1-2.7-0.1-3.1-0.2    c-0.1,0-0.3-0.1-0.5-0.1c-0.2,0-0.4-0.1-0.5-0.1c-0.2,0-0.5,0-1-0.1c-0.5,0-0.9-0.1-1.1-0.2c0-0.1-0.1-0.1-0.2-0.2    s-0.1-0.1-0.2-0.2c0-0.8,0.1-1.5,0.3-2.2c0.2-0.7,0.5-1.2,0.9-1.6c0.2,0,0.5-0.1,0.7-0.1c0.3,0,0.5,0,0.9,0c0.3,0,0.5,0,0.7,0    c1.2,0,2.4,0.1,3.7,0.1s2.7,0.1,4.3,0.1C120,34.6,121.2,34.6,122.1,34.6z"></path>		<path class="st4" d="M154.8,35.2c0.3,0.4,0.3,1.1,0,2.1c-0.3,1-0.7,1.7-1,2.2c-0.1,0.2-0.2,0.3-0.4,0.3c-0.2,0.1-0.5,0.1-0.7,0.1    c-0.3,0-0.6,0-0.8,0c-0.2,0-0.6,0-0.9,0c-0.4,0-0.6,0-0.8,0c-0.9,0-2.2,0-3.8-0.1c-1.6-0.1-2.7-0.1-3.1-0.2    c-0.1,0-0.3-0.1-0.5-0.1c-0.2,0-0.4-0.1-0.5-0.1c-0.2,0-0.5,0-1-0.1c-0.5,0-0.9-0.1-1.1-0.2c0-0.1-0.1-0.1-0.2-0.2    c-0.1-0.1-0.1-0.1-0.2-0.2c0-0.8,0.1-1.5,0.3-2.2c0.2-0.7,0.5-1.2,0.9-1.6c0.2,0,0.5-0.1,0.7-0.1c0.3,0,0.5,0,0.9,0    c0.3,0,0.5,0,0.7,0c1.2,0,2.4,0.1,3.7,0.1s2.7,0.1,4.3,0.1C152.8,35.1,154,35.1,154.8,35.2z"></path>		<path class="st4" d="M175.5,24.1c0.6,0.3,1.2,0.6,1.7,1.1c0.5,0.5,0.9,0.9,1.1,1.4c-1.2,4.4-2,7.5-2.4,9.3    c-0.3,1.4-0.7,2.8-1.1,4.2c-0.4,1.5-0.9,3.1-1.5,5c-0.6,1.9-1,3.3-1.2,4.2c-0.2,0.9-0.4,1.4-0.6,1.5c-0.2,0.1-0.7-0.2-1.3-0.9    c-0.6-0.4-1-0.8-1.3-1.1c-0.3-0.3-0.5-0.5-0.7-0.7c-0.2-0.2-0.2-0.4-0.2-0.7c0-0.3,0.1-0.5,0.1-0.7c0-0.2,0.1-0.6,0.3-1.1    s0.2-1,0.3-1.5c0.4-1.3,0.5-1.9,0.4-1.9c-0.1,0-0.6,0.7-1.5,2.2c-0.6,1.1-1.1,1.7-1.3,2c-0.5,1-1,1.7-1.6,2.1    c-0.6,0.4-1.1,0.4-1.7,0.2c-0.6-0.2-1.3-0.8-2-1.6c-0.1-0.4-0.2-1.2-0.2-2.3c-0.1-1.1-0.2-1.8-0.3-2.2c-0.7,2.7-1.3,4.8-1.7,6.4    c-0.1,0.4-0.3,0.7-0.6,0.7c-0.3,0.1-0.5,0-0.8-0.2c-0.5-0.2-1.1-0.6-1.6-1c-0.6-0.4-1-0.9-1.3-1.3c-0.3-0.5-0.4-0.8-0.4-1    c0-0.2,0.1-0.6,0.2-1c0.5-2,0.8-3.4,1-4.1c0.3-1.1,0.7-2.6,1.2-4.5c0.5-1.9,1-3.7,1.5-5.3c0.5-1.6,1-3.1,1.6-4.4    c0.4-1.1,1-1.8,1.8-2.3c0.8-0.5,1.7-0.6,2.7-0.3c0.4,0.1,0.7,0.4,0.9,0.7c0.2,0.4,0.3,0.8,0.3,1.3c0,0.5,0,1-0.1,1.5    c0,0.5-0.1,1.1-0.2,1.6c-0.1,0.6-0.1,1,0,1.3c0,0.1-0.1,1.6-0.3,4.4c-0.2,2.3-0.1,3.4,0.1,3.4c0.1,0,0.3-0.2,0.4-0.6    c0.3-0.5,0.9-1.3,1.6-2.5c0.8-1.2,1.4-2.1,1.8-2.7c0.4-0.6,0.9-1.4,1.5-2.4c0.6-1,1.1-1.9,1.6-2.7c0.5-0.8,0.9-1.7,1.3-2.5    c0.2-0.5,0.5-0.9,0.8-1.1c0.3-0.2,0.6-0.3,0.8-0.3C174.8,23.9,175.1,24,175.5,24.1z"></path>		<path class="st4" d="M207.7,24.7c1.1,0,1.9,0,2.6,0.1c0.7,0.1,1.3,0.2,1.7,0.4c0.5,0.2,0.7,0.5,0.8,0.8c0,0.4-0.1,0.8-0.5,1.4    c-0.4,0.6-1,1.3-1.8,2.2c-0.3,0-0.7,0-1.1,0c-0.4,0-0.7,0-0.9,0c-0.2,0-0.4,0-0.7,0c-0.2,0-0.5,0-0.6,0.1c-0.2,0-0.3,0.1-0.4,0.2    c-0.2,0.2-0.4,0.4-0.6,0.7c-0.1,0.3-0.3,0.9-0.4,1.7c-0.1,0.3-0.3,1.3-0.7,2.9c-0.4,1.7-0.8,3.4-1.3,5.2c-0.5,1.8-1,3.6-1.6,5.4    c-0.6,1.8-1.1,3.2-1.7,4.2c-0.6,1-1.1,1.3-1.6,0.9c-0.2-0.1-0.5-0.2-0.7-0.4c-0.3-0.2-0.5-0.3-0.6-0.4c-0.1-0.1-0.3-0.3-0.6-0.6    c-0.3-0.3-0.5-0.5-0.5-0.5c-0.1-0.2-0.2-0.4-0.3-0.8c0-0.3,0-0.6,0-0.8c0.4-1.6,1.1-4.1,2-7.3c0.2-0.6,0.5-1.7,0.8-3.1    c0.3-1.4,0.6-2.5,0.9-3.3c0.6-2.4,1-3.6,1-3.8c-0.1,0-0.2,0.1-0.4,0.1c-0.2,0-0.4,0.1-0.4,0.1c-0.1,0-0.2,0-0.5,0    c-0.6,0.2-1.6,0.4-3,0.6c-0.2-0.6-0.3-1.5-0.2-2.7c0.1-1.1,0.3-1.9,0.6-2.4c1-0.2,2.2-0.4,3.6-0.6c1.3-0.1,2.4-0.2,3.4-0.3    C205,24.8,206.2,24.7,207.7,24.7z"></path>		<path class="st4" d="M236.6,46.4c0.3,0.3,0.8,0.8,1.4,1.5c0.6,0.7,0.9,1.1,1.1,1.3c0.2,0.2,0.3,0.3,0.4,0.4    c0.1,0.1,0.1,0.2,0.1,0.4c0,0.2-0.1,0.4-0.2,0.6c-1,0.6-2.1,0.8-3.2,0.6c-1.1-0.2-2.1-0.7-3.1-1.4c-0.9-0.7-1.7-1.5-2.3-2.5    c-0.1-0.1-0.3-0.3-0.5-0.6c-0.2-0.3-0.4-0.5-0.5-0.6c-0.2,0.4-0.4,1.2-0.7,2.3c-0.3,1.1-0.5,1.9-0.8,2.4c-0.2,0.6-0.6,0.7-1.1,0.3    c-0.9-0.6-1.7-1.3-2.4-2.1c-0.2-0.2-0.3-0.4-0.3-0.6c0-0.2,0-0.4,0.1-0.7c1.7-7,3.6-14.3,5.7-21.8c0-0.3,0.1-0.5,0.1-0.7    c0.1-0.2,0.2-0.3,0.3-0.4c0.2-0.1,0.3-0.1,0.5-0.2c0.2,0,0.3,0,0.6,0c0.2,0,0.4,0.1,0.6,0.1c0.2,0,0.4,0.1,0.6,0.2    c0.2,0.1,0.4,0.1,0.5,0.2c0.1,0,0.3-0.1,0.7-0.2c0.4-0.1,0.7-0.2,0.8-0.2c1.3-0.1,2.5-0.1,3.5,0.2c1,0.3,1.8,0.7,2.4,1.3    c0.6,0.6,1,1.2,1.4,2c0.3,0.8,0.5,1.6,0.5,2.5c0,0.9-0.1,1.8-0.4,2.8c-0.2,1-0.6,1.9-1.1,2.7c-0.5,0.9-1,1.7-1.7,2.4    c-0.7,0.7-1.4,1.4-2.2,1.8c-0.4,0.3-0.8,0.5-1.2,0.8c-0.4,0.2-0.7,0.4-0.9,0.5s-0.4,0.2-0.6,0.4c-0.2,0.1-0.3,0.2-0.4,0.3    c0,0-0.1,0.1-0.1,0.3c0,0.1,0,0.2,0.1,0.3c0.1,0.1,0.2,0.2,0.3,0.5c0.1,0.2,0.3,0.4,0.5,0.6c0.2,0.2,0.4,0.5,0.7,0.9    C236.1,45.5,236.4,45.9,236.6,46.4z M236.9,30.2c-0.2,0-0.4,0-0.6,0c-1,0-1.6,0.1-1.7,0.2s-0.4,0.5-0.5,1.1    c-0.2,0.6-0.3,1.2-0.5,1.6c-0.1,0.4-0.3,1.1-0.5,2c-0.2,0.9-0.3,1.5-0.4,1.9c0.6-0.3,1.1-0.7,1.5-0.9c0.4-0.3,0.9-0.6,1.4-1.1    c0.5-0.5,1-0.9,1.3-1.3c0.3-0.4,0.6-0.9,0.8-1.5c0.2-0.6,0.3-1.2,0.3-1.7C237.9,30.3,237.5,30.2,236.9,30.2z"></path>	</g></g></svg>